<svg width="56" height="37" viewBox="0 0 56 37" fill="none" xmlns="http://www.w3.org/2000/svg">
<path d="M2.65078 1.0914C1.95463 1.0914 1.39825 1.96926 1.39417 3.05963L1.32817 20.6809C1.32217 21.7712 1.88869 22.6567 2.58475 22.649L14.486 22.517C15.5244 23.3064 14.0726 28.4136 10.2742 30.3812C7.04881 32.0519 10.1269 35.3825 9.97009 35.9473C15.2696 34.6477 17.2477 32.5961 18.6173 31.608C20.7934 29.8307 24.1843 25.1887 25.0306 21.7342C25.1551 21.4286 25.1215 21.0717 25.123 20.6808L25.189 3.05957C25.195 1.9692 24.6285 1.09134 23.9323 1.09134L2.65078 1.0914Z" stroke="#404040" stroke-width="1.10827" stroke-linecap="round" stroke-linejoin="round"/>
<path d="M32.4721 1.0914C31.7759 1.0914 31.2195 1.96926 31.2155 3.05963L31.1495 20.6809C31.1435 21.7712 31.71 22.6567 32.406 22.649L44.3073 22.517C45.3457 23.3064 43.8939 28.4136 40.0955 30.3812C36.8701 32.0519 39.9482 35.3825 39.7914 35.9473C45.0909 34.6477 47.069 32.5961 48.4386 31.608C50.6147 29.8307 54.0056 25.1887 54.8519 21.7342C54.9764 21.4286 54.9428 21.0717 54.9443 20.6808L55.0103 3.05957C55.0163 1.9692 54.4498 1.09134 53.7536 1.09134L32.4721 1.0914Z" stroke="#404040" stroke-width="1.10827" stroke-linecap="round" stroke-linejoin="round"/>
</svg>
