<svg width="13" height="9" viewBox="0 0 13 9" fill="none" xmlns="http://www.w3.org/2000/svg">
<path d="M12.5823 1.51353C12.5334 1.34901 12.4434 1.19961 12.321 1.07929C12.1986 0.958971 12.0477 0.871671 11.8823 0.825539C11.7535 0.790959 11.6176 0.792628 11.4897 0.830391C11.3617 0.868154 11.2468 0.940531 11.1573 1.03953L6.29535 5.98154L1.46033 1.03953C1.3852 0.956753 1.29195 0.892489 1.18787 0.851723C1.08378 0.810956 0.971709 0.794807 0.860351 0.804542C0.651298 0.828319 0.456409 0.92205 0.307342 1.07053C0.146637 1.22017 0.0409473 1.41955 0.00732337 1.63654C-0.00899564 1.75267 0.00204932 1.87101 0.0395499 1.98212C0.0770506 2.09324 0.139974 2.19404 0.223327 2.27653L5.82333 7.98554C5.88279 8.05148 5.95523 8.10444 6.0361 8.14109C6.11698 8.17774 6.20455 8.19728 6.29333 8.19852H6.31433C6.5051 8.19862 6.68813 8.12311 6.82333 7.98853L12.3723 2.27753C12.4743 2.18188 12.5479 2.05993 12.5849 1.92512C12.622 1.7903 12.6211 1.64786 12.5823 1.51353Z" fill="#fff"/>
</svg>
