<svg width="24" height="24" viewBox="0 0 24 24" fill="none" xmlns="http://www.w3.org/2000/svg">
<path d="M8.75435 18.5031C8.65564 18.5036 8.5578 18.4847 8.46642 18.4474C8.37504 18.4101 8.29193 18.3551 8.22185 18.2856C8.15155 18.2158 8.09576 18.1329 8.05768 18.0415C8.0196 17.9501 8 17.8521 8 17.7531C8 17.6541 8.0196 17.556 8.05768 17.4646C8.09576 17.3732 8.15155 17.2903 8.22185 17.2206L13.6968 11.7531L8.22185 6.28557C8.08062 6.14434 8.00128 5.9528 8.00128 5.75307C8.00128 5.65417 8.02076 5.55625 8.0586 5.46488C8.09645 5.37352 8.15192 5.2905 8.22185 5.22057C8.29178 5.15064 8.37479 5.09517 8.46616 5.05732C8.55753 5.01948 8.65545 5 8.75435 5C8.95407 5 9.14562 5.07934 9.28685 5.22057L15.2868 11.2206C15.3571 11.2903 15.4129 11.3732 15.451 11.4646C15.4891 11.556 15.5087 11.6541 15.5087 11.7531C15.5087 11.8521 15.4891 11.9501 15.451 12.0415C15.4129 12.1329 15.3571 12.2158 15.2868 12.2856L9.28685 18.2856C9.21677 18.3551 9.13366 18.4101 9.04228 18.4474C8.9509 18.4847 8.85305 18.5036 8.75435 18.5031Z" fill="#424453"/>
</svg>
