<svg width="38" height="38" viewBox="0 0 38 38" fill="none" xmlns="http://www.w3.org/2000/svg">
<path fill-rule="evenodd" clip-rule="evenodd" d="M19.0571 0.319824C22.7406 0.319824 26.3413 1.4121 29.404 3.45853C32.4667 5.50497 34.8538 8.41364 36.2634 11.8167C37.673 15.2198 38.0419 18.9645 37.3232 22.5772C36.6046 26.1899 34.8309 29.5084 32.2263 32.113C29.6217 34.7176 26.3032 36.4914 22.6905 37.21C19.0778 37.9286 15.3331 37.5598 11.93 36.1502C8.52692 34.7406 5.61825 32.3535 3.57182 29.2908C1.52538 26.2281 0.433105 22.6273 0.433105 18.9438C0.438664 14.0061 2.40261 9.27228 5.89409 5.78081C9.38556 2.28933 14.1194 0.325382 19.0571 0.319824ZM19.0571 3.11382C15.9262 3.11382 12.8657 4.04224 10.2624 5.78166C7.6592 7.52108 5.63023 9.99339 4.43209 12.8859C3.23396 15.7785 2.92047 18.9614 3.53127 22.0321C4.14208 25.1028 5.64974 27.9235 7.86361 30.1373C10.0775 32.3512 12.8981 33.8588 15.9688 34.4697C19.0395 35.0805 22.2224 34.767 25.115 33.5688C28.0075 32.3707 30.4798 30.3417 32.2193 27.7385C33.9587 25.1353 34.8871 22.0747 34.8871 18.9438C34.8823 14.7469 33.213 10.7233 30.2453 7.75559C27.2777 4.78792 23.254 3.11859 19.0571 3.11382ZM22.7321 11.4938C22.9935 11.7562 23.1402 12.1115 23.1402 12.4818C23.1402 12.8522 22.9935 13.2074 22.7321 13.4698L17.2321 18.9438L22.7331 24.4198C22.8799 24.545 22.9992 24.6992 23.0836 24.8728C23.168 25.0463 23.2156 25.2354 23.2234 25.4282C23.2313 25.6209 23.1992 25.8133 23.1292 25.9931C23.0591 26.1729 22.9527 26.3362 22.8165 26.4729C22.6804 26.6097 22.5174 26.7167 22.3379 26.7875C22.1584 26.8582 21.9662 26.8911 21.7734 26.8841C21.5806 26.877 21.3913 26.8302 21.2175 26.7465C21.0436 26.6628 20.8889 26.5441 20.7631 26.3978L14.2691 19.9358C14.1391 19.8058 14.036 19.6515 13.9656 19.4816C13.8952 19.3117 13.859 19.1297 13.859 18.9458C13.859 18.762 13.8952 18.5799 13.9656 18.41C14.036 18.2402 14.1391 18.0858 14.2691 17.9558L20.7631 11.4918C21.0255 11.2326 21.3796 11.0873 21.7485 11.0877C22.1174 11.0881 22.4702 11.234 22.7321 11.4938Z" fill="#4E5258"/>
</svg>
