<svg width="38" height="38" viewBox="0 0 38 38" fill="none" xmlns="http://www.w3.org/2000/svg">
<path fill-rule="evenodd" clip-rule="evenodd" d="M18.9997 0.428711C15.3267 0.428909 11.7363 1.51825 8.68247 3.55897C5.62862 5.5997 3.24848 8.50017 1.84304 11.8936C0.4376 15.287 0.0699753 19.021 0.786654 22.6233C1.50333 26.2257 3.27213 29.5346 5.86937 32.1317C8.46661 34.7288 11.7756 36.4975 15.378 37.2139C18.9804 37.9304 22.7144 37.5626 26.1077 36.157C29.5011 34.7514 32.4014 32.3711 34.442 29.3171C36.4826 26.2631 37.5717 22.6727 37.5717 18.9997C37.5659 14.076 35.6073 9.35561 32.1256 5.87411C28.6439 2.3926 23.9234 0.434269 18.9997 0.428711ZM18.9997 3.21471C22.122 3.21451 25.1742 4.1402 27.7703 5.87471C30.3665 7.60923 32.3899 10.0747 33.5849 12.9592C34.7798 15.8438 35.0925 19.0179 34.4834 22.0802C33.8743 25.1424 32.3709 27.9553 30.1631 30.1631C27.9553 32.3709 25.1424 33.8744 22.0801 34.4834C19.0179 35.0925 15.8437 34.7798 12.9592 33.5849C10.0746 32.39 7.60921 30.3665 5.8747 27.7703C4.14019 25.1742 3.2145 22.122 3.2147 18.9997C3.21867 14.8145 4.883 10.8018 7.8424 7.84242C10.8018 4.88302 14.8145 3.21868 18.9997 3.21471ZM15.3347 11.5717C15.2053 11.7011 15.1027 11.8546 15.0327 12.0236C14.9627 12.1926 14.9267 12.3738 14.9267 12.5567C14.9267 12.7396 14.9627 12.9208 15.0327 13.0898C15.1027 13.2588 15.2053 13.4124 15.3347 13.5417L20.8167 18.9997L15.3347 24.4597C15.2054 24.589 15.1029 24.7425 15.0329 24.9114C14.9629 25.0803 14.9269 25.2614 14.9269 25.4442C14.9269 25.627 14.9629 25.8081 15.0329 25.977C15.1029 26.1459 15.2054 26.2994 15.3347 26.4287C15.464 26.558 15.6175 26.6606 15.7864 26.7305C15.9553 26.8005 16.1364 26.8365 16.3192 26.8365C16.502 26.8365 16.6831 26.8005 16.852 26.7305C17.0209 26.6606 17.1744 26.558 17.3037 26.4287L23.7797 19.9847C24.0404 19.7224 24.1868 19.3676 24.1868 18.9977C24.1868 18.6279 24.0404 18.273 23.7797 18.0107L17.3037 11.5647C17.1741 11.4358 17.0204 11.3337 16.8514 11.2643C16.6823 11.1948 16.5012 11.1593 16.3185 11.1599C16.1357 11.1604 15.9548 11.197 15.7862 11.2675C15.6176 11.338 15.4645 11.441 15.3357 11.5707L15.3347 11.5717Z" fill="#4E5258"/>
</svg>
