<svg width="28" height="28" viewBox="0 0 28 28" fill="none" xmlns="http://www.w3.org/2000/svg">
<g clip-path="url(#clip0_2370_113)">
<path d="M19.12 8.2832V7.1442C19.1284 7.08683 19.1284 7.02856 19.12 6.9712V6.6622L19.08 6.49719H19.053C18.834 5.80402 18.4602 5.16974 17.9598 4.64237C17.4595 4.115 16.8457 3.70835 16.165 3.4532C14.1505 2.57335 11.9699 2.13878 9.77202 2.1792C7.57155 2.13603 5.38794 2.57104 3.37202 3.45419C1.59702 4.30419 0.554016 5.50219 0.438016 6.81319L0.420015 6.91319C0.408641 6.96979 0.40361 7.02748 0.405015 7.0852V17.9962C0.405015 19.4032 1.45502 20.6882 3.36202 21.6162C5.38345 22.4986 7.57178 22.9336 9.77701 22.8912C10.5827 22.8914 11.3876 22.8373 12.186 22.7292C13.3454 24.0969 14.8971 25.0753 16.6309 25.532C18.3648 25.9887 20.1971 25.9015 21.8798 25.2824C23.5625 24.6633 25.0143 23.542 26.0387 22.0705C27.0631 20.5989 27.6106 18.8482 27.607 17.0552C27.6012 14.7794 26.7139 12.5943 25.1315 10.9587C23.549 9.32307 21.3944 8.36414 19.12 8.2832ZM9.77102 3.7832C11.727 3.74801 13.6679 4.13088 15.464 4.90619C16.737 5.51919 17.487 6.29519 17.523 7.03519V7.08619C17.4875 7.38841 17.3855 7.679 17.2241 7.937C17.0628 8.195 16.8462 8.414 16.59 8.5782C15.6102 8.84561 14.6829 9.27778 13.848 9.8562C12.5191 10.2147 11.1484 10.3946 9.77202 10.3912C7.80693 10.4322 5.85616 10.0485 4.05302 9.2662C2.84602 8.6902 2.08002 7.9372 2.00802 7.2662V7.08619C2.00771 7.05267 2.0047 7.01923 1.99902 6.98619C2.06602 6.26319 2.81302 5.50819 4.05302 4.91019C5.85705 4.13154 7.80642 3.74664 9.77102 3.78119V3.7832ZM10.222 15.5832C10.1411 16.0704 10.1003 16.5634 10.1 17.0572C10.1 17.3262 10.109 17.5852 10.129 17.8292C10.007 17.8332 9.88368 17.8352 9.75902 17.8352C7.79834 17.8692 5.853 17.4843 4.05302 16.7062C2.75302 16.0842 2.00702 15.2772 2.00702 14.4912V13.5062C2.42721 13.824 2.87851 14.0984 3.35401 14.3252C5.37085 15.2044 7.55438 15.6356 9.75402 15.5892C9.91502 15.5872 10.069 15.5852 10.222 15.5802V15.5832ZM9.75902 14.0002C7.79742 14.0459 5.84968 13.6608 4.05302 12.8722C2.75302 12.2512 2.00702 11.4432 2.00702 10.6582V9.89019C2.4291 10.2132 2.88433 10.4904 3.36502 10.7172C5.38081 11.6009 7.56446 12.0362 9.76502 11.9932C10.4353 11.9962 11.1053 11.9628 11.772 11.8932C11.3063 12.5313 10.9302 13.2301 10.654 13.9702C10.337 13.9872 10.041 13.9972 9.75902 13.9972V14.0002ZM2.00702 17.3312C2.42717 17.649 2.87848 17.9234 3.35401 18.1502C5.3698 19.0339 7.55346 19.4692 9.75402 19.4262C9.97602 19.4262 10.19 19.4262 10.405 19.4202C10.5835 20.0533 10.8331 20.6642 11.149 21.2412C10.675 21.2832 10.22 21.3042 9.76602 21.3042C7.80263 21.3433 5.85394 20.9582 4.05302 20.1752C2.75302 19.5542 2.00702 18.7592 2.00702 17.9952V17.3312ZM26.002 17.0572C25.9975 18.4705 25.5743 19.8507 24.7859 21.0237C23.9976 22.1967 22.8794 23.1098 21.5725 23.6478C20.2656 24.1858 18.8286 24.3245 17.4429 24.0464C16.0572 23.7683 14.785 23.086 13.7868 22.0854C12.7887 21.0849 12.1093 19.811 11.8345 18.4247C11.5598 17.0384 11.7019 15.6017 12.2429 14.2961C12.784 12.9905 13.6998 11.8744 14.8746 11.0889C16.0495 10.3033 17.4307 9.88339 18.844 9.88219C20.7436 9.88643 22.5639 10.6439 23.9058 11.9884C25.2476 13.3328 26.0015 15.1546 26.002 17.0542V17.0572Z" fill="#404040"/>
</g>
<defs>
<clipPath id="clip0_2370_113">
<rect width="28" height="28" fill="white"/>
</clipPath>
</defs>
</svg>
