<svg width="9" height="9" viewBox="0 0 9 9" fill="none" xmlns="http://www.w3.org/2000/svg">
<g clip-path="url(#clip0_452_38967)">
<path d="M5.87234 0.567848L8.43334 3.12885C8.61352 3.30892 8.75645 3.52273 8.85397 3.75805C8.95148 3.99338 9.00168 4.24562 9.00168 4.50035C9.00168 4.75508 8.95148 5.00732 8.85397 5.24265C8.75645 5.47798 8.61352 5.69178 8.43334 5.87185L5.87234 8.43285C5.69227 8.61303 5.47847 8.75596 5.24314 8.85348C5.00781 8.951 4.75557 9.00119 4.50084 9.00119C4.24611 9.00119 3.99387 8.951 3.75854 8.85348C3.52321 8.75596 3.30941 8.61303 3.12934 8.43285L0.568336 5.87185C0.388158 5.69178 0.245227 5.47798 0.147709 5.24265C0.0501907 5.00732 0 4.75508 0 4.50035C0 4.24562 0.0501907 3.99338 0.147709 3.75805C0.245227 3.52273 0.388158 3.30892 0.568336 3.12885L3.12934 0.567848C3.30941 0.38767 3.52321 0.244739 3.75854 0.147221C3.99387 0.0497024 4.24611 -0.000488281 4.50084 -0.000488281C4.75557 -0.000488281 5.00781 0.0497024 5.24314 0.147221C5.47847 0.244739 5.69227 0.38767 5.87234 0.567848Z" fill="#F0E3D8"/>
</g>
<defs>
<clipPath id="clip0_452_38967">
<rect width="9.001" height="9.001" fill="white"/>
</clipPath>
</defs>
</svg>
