<svg width="28" height="28" viewBox="0 0 28 28" fill="none" xmlns="http://www.w3.org/2000/svg">
<path d="M19.4287 3.41406C18.3689 3.42131 17.3257 3.67695 16.3827 4.16044C15.4396 4.64394 14.6231 5.34183 13.9987 6.19806C13.3742 5.34183 12.5577 4.64394 11.6147 4.16044C10.6717 3.67695 9.62839 3.42131 8.56867 3.41406C6.76939 3.41592 5.04433 4.13143 3.77195 5.40362C2.49957 6.67581 1.7838 8.40078 1.78168 10.2001C1.76794 11.6023 2.08223 12.9883 2.69948 14.2475C3.31673 15.5066 4.21984 16.604 5.33667 17.4521C6.06467 18.0941 6.88668 18.7401 7.75768 19.4241C9.75069 20.9357 11.6406 22.5787 13.4147 24.3421C13.4896 24.4199 13.5796 24.4817 13.6791 24.5238C13.7786 24.5659 13.8856 24.5874 13.9937 24.5871C14.2147 24.5859 14.4264 24.4983 14.5837 24.3431C16.3584 22.5793 18.2489 20.9359 20.2427 19.4241C21.1127 18.7401 21.9357 18.0941 22.6637 17.4521C23.7802 16.6039 24.683 15.5064 25.2999 14.2473C25.9168 12.9881 26.2307 11.6021 26.2167 10.2001C26.2146 8.40061 25.4986 6.67549 24.226 5.40327C22.9535 4.13105 21.2281 3.41565 19.4287 3.41406ZM24.5867 10.2001C24.5867 13.0481 23.5337 14.5171 21.5867 16.2311C20.9237 16.8161 20.1727 17.4081 19.3037 18.0921C17.4504 19.5091 15.678 21.0288 13.9947 22.6441C12.3117 21.0289 10.5396 19.5092 8.68668 18.0921C7.81768 17.4071 7.06668 16.8161 6.40368 16.2311C4.46068 14.5171 3.40368 13.0481 3.40368 10.2001C3.39604 9.52063 3.52424 8.84652 3.78077 8.21733C4.03729 7.58814 4.41694 7.01655 4.89745 6.53613C5.37796 6.05572 5.94962 5.67617 6.57886 5.41977C7.2081 5.16337 7.88225 5.03529 8.56168 5.04306C9.54207 5.0471 10.5016 5.3263 11.3311 5.8489C12.1606 6.3715 12.8268 7.11649 13.2537 7.99906C13.3455 8.19454 13.511 8.34567 13.714 8.41934C13.917 8.493 14.1409 8.4832 14.3367 8.39206C14.509 8.31147 14.6476 8.17315 14.7287 8.00106C15.1554 7.11792 15.8216 6.37234 16.6512 5.84921C17.4809 5.32608 18.4408 5.04642 19.4217 5.04206C20.1016 5.03335 20.7764 5.1607 21.4064 5.41662C22.0364 5.67254 22.6089 6.05185 23.0901 6.53226C23.5713 7.01266 23.9516 7.58445 24.2087 8.21399C24.4657 8.84353 24.5942 9.51812 24.5867 10.1981V10.2001Z" fill="white"/>
</svg>
