<svg width="28" height="28" viewBox="0 0 28 28" fill="none" xmlns="http://www.w3.org/2000/svg">
<g clip-path="url(#clip0_2304_697)">
<path d="M25.4629 23.9898L22.1759 20.7108C23.596 19.0615 24.5128 17.0393 24.8174 14.8843C25.1221 12.7294 24.8018 10.5322 23.8947 8.55392C22.9875 6.57561 21.5315 4.89927 19.6997 3.724C17.868 2.54873 15.7373 1.92393 13.5609 1.92383H13.5529C10.9729 1.92767 8.47021 2.80536 6.45292 4.41382C4.11724 6.27823 2.60934 8.98714 2.25538 11.9547C1.90142 14.9222 2.72984 17.9097 4.56147 20.2712C6.39309 22.6327 9.08069 24.1782 12.043 24.5736C15.0053 24.9689 18.0041 24.1823 20.3909 22.3838L23.7369 25.7198C23.9673 25.9436 24.2764 26.0676 24.5976 26.0652C24.9187 26.0628 25.226 25.9341 25.4529 25.7068C25.6799 25.4796 25.8082 25.1722 25.8103 24.8511C25.8124 24.5299 25.6879 24.2209 25.4639 23.9908L25.4629 23.9898ZM22.4869 13.2968C22.4869 15.063 21.9632 16.7895 20.9819 18.2581C20.0007 19.7266 18.606 20.8712 16.9743 21.5471C15.3425 22.2229 13.547 22.3998 11.8148 22.0552C10.0825 21.7107 8.49135 20.8602 7.24247 19.6113C5.99358 18.3624 5.14306 16.7712 4.7985 15.039C4.45393 13.3067 4.63078 11.5112 5.30668 9.87946C5.98257 8.24771 7.12715 6.85304 8.59568 5.8718C10.0642 4.89055 11.7907 4.36682 13.5569 4.36682C15.9245 4.36947 18.1943 5.31116 19.8684 6.98529C21.5426 8.65942 22.4843 10.9292 22.4869 13.2968Z" fill="#404040"/>
</g>
<defs>
<clipPath id="clip0_2304_697">
<rect width="28" height="28" fill="white"/>
</clipPath>
</defs>
</svg>
