<svg width="28" height="28" viewBox="0 0 28 28" fill="none" xmlns="http://www.w3.org/2000/svg">
<g clip-path="url(#clip0_452_38943)">
<path d="M26.3426 10.8962L26.3556 10.8832C26.3444 10.7641 26.3046 10.6495 26.2396 10.5492C25.4699 8.23023 23.9322 6.24317 21.8806 4.91618C20.2647 3.88067 18.4036 3.29119 16.4862 3.20759C14.5688 3.12399 12.6635 3.54925 10.9636 4.44018C10.8936 4.47403 10.8286 4.51744 10.7706 4.56918C10.6702 4.66492 10.6034 4.79052 10.5802 4.92728C10.5569 5.06404 10.5785 5.20465 10.6416 5.32818C10.6807 5.40385 10.7344 5.47098 10.7997 5.52564C10.865 5.5803 10.9406 5.6214 11.022 5.64653C11.1033 5.67167 11.1889 5.68034 11.2736 5.67204C11.3584 5.66374 11.4407 5.63863 11.5156 5.59818C11.5348 5.59467 11.5525 5.58563 11.5666 5.57218C12.7026 4.98067 13.9457 4.62282 15.2224 4.51976C16.499 4.41671 17.7834 4.57054 18.9996 4.97218C18.667 5.30317 18.4053 5.69849 18.2306 6.13401C18.056 6.56952 17.9719 7.03608 17.9836 7.50518C17.9966 8.03218 17.7136 8.34118 17.2636 8.79118C16.8526 9.20218 16.1706 9.87118 16.6976 10.7972C16.8412 10.9887 16.9076 11.2272 16.8837 11.4653C16.8598 11.7035 16.7473 11.924 16.5686 12.0832C16.4092 12.2102 16.2074 12.2717 16.0042 12.2549C15.8011 12.2382 15.612 12.1446 15.4756 11.9932C15.0584 11.6409 14.7802 11.1518 14.6906 10.6132C14.6405 10.2916 14.5244 9.98383 14.3496 9.70931C14.1747 9.4348 13.9449 9.19948 13.6746 9.01818C13.4116 8.85392 13.1104 8.76087 12.8006 8.74818H12.7496C12.5867 8.7505 12.4311 8.81626 12.3159 8.93147C12.2007 9.04667 12.1349 9.20226 12.1326 9.36518C12.1283 9.44983 12.1409 9.53448 12.1698 9.61418C12.1986 9.69388 12.2431 9.76702 12.3005 9.82933C12.358 9.89163 12.4273 9.94184 12.5044 9.97702C12.5815 10.0122 12.6649 10.0316 12.7496 10.0342C12.8329 10.0342 12.914 10.0612 12.9806 10.1112C13.2806 10.2912 13.3276 10.4582 13.4436 10.9212C13.6 11.7116 14.0165 12.4269 14.6266 12.9532C15.03 13.3256 15.5566 13.5364 16.1056 13.5452C16.5708 13.5434 17.021 13.3805 17.3796 13.0842C17.7968 12.7283 18.069 12.2318 18.1448 11.6887C18.2205 11.1456 18.0945 10.5936 17.7906 10.1372C17.8936 9.9746 18.0192 9.82746 18.1636 9.70018C18.4987 9.43406 18.7713 9.09773 18.9624 8.71487C19.1535 8.33201 19.2584 7.91193 19.2696 7.48418C19.245 7.08822 19.3397 6.69398 19.5415 6.35241C19.7433 6.01085 20.0429 5.73767 20.4016 5.56818C20.6721 5.69176 20.9341 5.83341 21.1856 5.99218C22.8265 7.06888 24.0933 8.62775 24.8116 10.4542C24.249 10.6603 23.7169 10.9415 23.2296 11.2902C22.1716 12.1043 21.3938 13.2282 21.0046 14.5052C20.5546 15.6882 19.4876 15.8682 18.3296 15.9452L17.9566 15.9712C17.7478 16.0031 17.5416 16.0502 17.3396 16.1122C17.1767 16.1644 17.0408 16.2786 16.9615 16.4302C16.8821 16.5818 16.8656 16.7585 16.9156 16.9222C16.9659 17.0842 17.0782 17.2198 17.2281 17.2992C17.378 17.3787 17.5533 17.3955 17.7156 17.3462C17.8459 17.3039 17.9798 17.2738 18.1156 17.2562L18.4246 17.2302C19.2099 17.2805 19.992 17.0911 20.6672 16.687C21.3424 16.2828 21.8789 15.6831 22.2056 14.9672C22.5129 13.9375 23.1222 13.0237 23.9546 12.3442C24.3483 12.0719 24.7746 11.8502 25.2236 11.6842C25.7917 13.8598 25.5589 16.1672 24.5676 18.1856C23.5764 20.2039 21.8927 21.7987 19.8236 22.6792C19.7459 22.3357 19.6066 22.0091 19.4126 21.7152C19.0945 21.2809 18.6694 20.9364 18.1786 20.7152C17.7464 20.5081 17.358 20.2198 17.0346 19.8662C16.9234 19.7354 16.765 19.6539 16.594 19.6395C16.4229 19.625 16.2531 19.6789 16.1216 19.7892C15.9939 19.8995 15.9144 20.0554 15.9 20.2235C15.8857 20.3917 15.9375 20.5587 16.0446 20.6892C16.4677 21.1692 16.9838 21.5584 17.5616 21.8332C17.869 21.9721 18.1422 22.1769 18.3616 22.4332C18.4868 22.6479 18.5737 22.8827 18.6186 23.1272C16.9276 23.6157 15.1348 23.6292 13.4366 23.1662C13.2747 23.1219 13.1019 23.1428 12.9553 23.2246C12.8088 23.3063 12.7001 23.4422 12.6526 23.6032V23.6162C12.6293 23.6963 12.6222 23.7803 12.6316 23.8633C12.641 23.9462 12.6667 24.0265 12.7074 24.0994C12.748 24.1724 12.8027 24.2365 12.8683 24.2881C12.934 24.3397 13.0092 24.3778 13.0896 24.4002C15.1391 24.9821 17.3159 24.9371 19.3396 24.2712H19.3656C19.5224 24.2683 19.6729 24.209 19.7896 24.1042C21.9671 23.296 23.826 21.8074 25.0906 19.8592C25.9378 18.5458 26.4887 17.0636 26.7049 15.5157C26.9212 13.9678 26.7975 12.3914 26.3426 10.8962ZM5.6006 22.8292L5.7806 22.3922C5.72312 22.4495 5.67761 22.5176 5.64671 22.5926C5.61581 22.6676 5.60013 22.748 5.6006 22.8292Z" fill="white"/>
<path d="M15.6176 15.6021V16.9391C15.6164 17.0281 15.5976 17.116 15.5623 17.1978C15.5269 17.2795 15.4757 17.3533 15.4116 17.4151C15.272 17.5321 15.0934 17.5918 14.9116 17.5821L10.4236 17.1581L10.1536 20.8871L11.1176 22.5071C11.1799 22.6023 11.2114 22.7144 11.2076 22.8281C11.2084 22.9128 11.1923 22.9967 11.1602 23.0751C11.1282 23.1535 11.0809 23.2247 11.021 23.2846C10.9611 23.3444 10.8899 23.3918 10.8116 23.4238C10.7332 23.4558 10.6492 23.4719 10.5646 23.4711H6.24356C6.1589 23.4719 6.07493 23.4558 5.99655 23.4238C5.91818 23.3918 5.84697 23.3444 5.7871 23.2846C5.72723 23.2247 5.6799 23.1535 5.64787 23.0751C5.61584 22.9967 5.59976 22.9128 5.60056 22.8281L5.78056 22.3911L6.61656 20.3211L6.38556 17.1581L1.89756 17.5821H1.83356C1.66319 17.5816 1.49994 17.5137 1.37947 17.3932C1.259 17.2727 1.19109 17.1095 1.19056 16.9391V15.6021C1.18818 15.4861 1.21817 15.3716 1.27716 15.2717C1.33615 15.1717 1.42182 15.0901 1.52456 15.0361L5.97356 12.6441V10.5231C5.97356 7.29511 6.79656 5.66211 8.40356 5.66211C10.0106 5.66211 10.8336 7.29511 10.8336 10.5231V12.6451L15.2826 15.0371C15.3853 15.0909 15.4711 15.1723 15.5303 15.2721C15.5894 15.3718 15.6197 15.4861 15.6176 15.6021Z" fill="white"/>
</g>
<defs>
<clipPath id="clip0_452_38943">
<rect width="28" height="28" fill="white"/>
</clipPath>
</defs>
</svg>
