<svg width="28" height="28" viewBox="0 0 28 28" fill="none" xmlns="http://www.w3.org/2000/svg">
<g clip-path="url(#clip0_2370_135)">
<path d="M18.2262 14.8223H9.77324C6.01024 14.8223 3.19824 18.6653 3.19824 22.1013V24.9533C3.19811 25.1647 3.23966 25.3741 3.32053 25.5695C3.40139 25.7649 3.51998 25.9425 3.66951 26.092C3.81904 26.2415 3.99658 26.3601 4.19197 26.441C4.38736 26.5218 4.59678 26.5634 4.80824 26.5633H23.1852C23.6136 26.5633 24.0244 26.3931 24.3272 26.0902C24.6301 25.7874 24.8002 25.3766 24.8002 24.9483V22.1013C24.8012 18.6653 21.9892 14.8223 18.2262 14.8223ZM22.9262 23.9423C22.926 24.1387 22.8478 24.327 22.7089 24.4659C22.57 24.6048 22.3817 24.683 22.1852 24.6833H5.83225C5.63307 24.6833 5.44205 24.6041 5.30121 24.4633C5.16037 24.3225 5.08124 24.1314 5.08124 23.9323V22.1013C5.08124 19.6013 7.13225 16.7013 9.78125 16.7013H18.2342C20.8792 16.7013 22.9342 19.6013 22.9342 22.1013L22.9262 23.9423Z" fill="#404040"/>
<path d="M14.0004 13.6473C15.6181 13.6454 17.1691 13.0023 18.3135 11.8589C19.4578 10.7154 20.1022 9.16498 20.1054 7.54727C20.1022 5.92955 19.4578 4.37908 18.3135 3.23565C17.1691 2.09223 15.6181 1.44912 14.0004 1.44727C12.3835 1.45044 10.8338 2.09413 9.69054 3.23742C8.54725 4.3807 7.90356 5.93042 7.90039 7.54727C7.90356 9.16411 8.54725 10.7138 9.69054 11.8571C10.8338 13.0004 12.3835 13.6441 14.0004 13.6473ZM14.0004 3.31627C15.121 3.31732 16.1953 3.76287 16.9878 4.55514C17.7803 5.34741 18.2261 6.42169 18.2274 7.54227C18.2261 8.66293 17.7803 9.73732 16.9879 10.5297C16.1954 11.3222 15.121 11.7679 14.0004 11.7693C12.8799 11.7677 11.8058 11.3218 11.0135 10.5294C10.2213 9.73699 9.77571 8.66276 9.77438 7.54227C9.77571 6.42187 10.2214 5.34774 11.0136 4.55549C11.8059 3.76325 12.88 3.31759 14.0004 3.31627Z" fill="#404040"/>
</g>
<defs>
<clipPath id="clip0_2370_135">
<rect width="28" height="28" fill="white"/>
</clipPath>
</defs>
</svg>
