<svg width="29" height="28" viewBox="0 0 29 28" fill="none" xmlns="http://www.w3.org/2000/svg">
<g clip-path="url(#clip0_2370_123)">
<path d="M25.569 8.19916L20.995 10.0381V7.31415C20.995 6.2127 20.5574 5.15634 19.7786 4.3775C18.9997 3.59866 17.9434 3.16113 16.842 3.16113H4.94696C3.84552 3.16113 2.78921 3.59866 2.01038 4.3775C1.23154 5.15634 0.793945 6.2127 0.793945 7.31415V20.6832C0.793945 21.7846 1.23154 22.8409 2.01038 23.6198C2.78921 24.3986 3.84552 24.8361 4.94696 24.8361H16.842C17.9434 24.8361 18.9997 24.3986 19.7786 23.6198C20.5574 22.8409 20.995 21.7846 20.995 20.6832V17.9592L25.962 19.9592C26.2349 20.0684 26.5304 20.1092 26.8226 20.0779C27.1149 20.0466 27.395 19.9442 27.6386 19.7796C27.8822 19.6151 28.0817 19.3934 28.2198 19.1339C28.358 18.8744 28.4305 18.5851 28.431 18.2911V10.1342C28.4312 9.79308 28.3478 9.45712 28.1879 9.15582C28.0281 8.85452 27.7968 8.59704 27.5142 8.40601C27.2317 8.21497 26.9065 8.09625 26.5674 8.06018C26.2282 8.02411 25.8854 8.07183 25.569 8.19916ZM19.4 20.6841C19.4001 21.02 19.3336 21.3525 19.2043 21.6625C19.0751 21.9725 18.8857 22.2538 18.647 22.4901C18.4108 22.7287 18.1296 22.9181 17.8198 23.0474C17.51 23.1766 17.1777 23.2432 16.842 23.2432H4.94696C4.26854 23.2432 3.6179 22.9736 3.13818 22.4939C2.65847 22.0142 2.38898 21.3635 2.38898 20.6851V7.31616C2.38898 6.63774 2.65847 5.9871 3.13818 5.50739C3.6179 5.02767 4.26854 4.75812 4.94696 4.75812H16.842C17.1777 4.75807 17.5101 4.82461 17.8199 4.95386C18.1297 5.08311 18.4108 5.27256 18.647 5.51117C18.8857 5.74743 19.0752 6.02868 19.2044 6.33868C19.3337 6.64869 19.4001 6.98127 19.4 7.31714V20.6862V20.6841ZM26.072 18.2841L20.995 16.2421V11.7581L25.995 9.74615C26.0877 9.70885 26.1882 9.69487 26.2876 9.70544C26.387 9.71601 26.4822 9.75079 26.5651 9.80676C26.6479 9.86273 26.7158 9.9382 26.7626 10.0265C26.8095 10.1148 26.834 10.2132 26.834 10.3131V17.7681C26.8339 17.8589 26.8116 17.9483 26.769 18.0285C26.7265 18.1087 26.6649 18.1772 26.5897 18.2281C26.5146 18.279 26.4281 18.3107 26.3378 18.3205C26.2476 18.3303 26.1563 18.3178 26.072 18.2841Z" fill="#404040"/>
<path d="M11.1977 18.1343H6.3957C5.95388 18.1343 5.5957 18.4924 5.5957 18.9343V18.9353C5.5957 19.3771 5.95388 19.7353 6.3957 19.7353H11.1977C11.6395 19.7353 11.9977 19.3771 11.9977 18.9353V18.9343C11.9977 18.4924 11.6395 18.1343 11.1977 18.1343Z" fill="#404040"/>
</g>
<defs>
<clipPath id="clip0_2370_123">
<rect width="28" height="28" fill="white" transform="translate(0.612305)"/>
</clipPath>
</defs>
</svg>
