<svg width="9" height="13" viewBox="0 0 9 13" fill="none" xmlns="http://www.w3.org/2000/svg">
<path d="M9 1.13043V0H0V1.13043H3.09375C3.71456 1.13234 4.31294 1.36391 4.77464 1.78093C5.23635 2.19795 5.52905 2.77122 5.59688 3.3913H0V4.52174H5.59688C5.52905 5.14182 5.23635 5.71509 4.77464 6.13211C4.31294 6.54914 3.71456 6.7807 3.09375 6.78261H0V8.10816L5.40951 13L6.16208 12.1599L1.46587 7.91304H3.09375C4.01401 7.91163 4.89994 7.56179 5.57493 6.93325C6.24992 6.30472 6.66439 5.44366 6.73571 4.52174H9V3.3913H6.73571C6.67124 2.54262 6.31426 1.7431 5.72625 1.13043H9Z" fill="#404040"/>
</svg>
