<svg width="56" height="56" viewBox="0 0 56 56" fill="none" xmlns="http://www.w3.org/2000/svg">
<g clip-path="url(#clip0_452_38506)">
<path d="M28 56C43.464 56 56 43.464 56 28C56 12.536 43.464 0 28 0C12.536 0 0 12.536 0 28C0 43.464 12.536 56 28 56Z" fill="white" fill-opacity="0.2"/>
<path d="M28 55.75C43.3259 55.75 55.75 43.3259 55.75 28C55.75 12.6741 43.3259 0.25 28 0.25C12.6741 0.25 0.25 12.6741 0.25 28C0.25 43.3259 12.6741 55.75 28 55.75Z" stroke="white" stroke-width="0.5"/>
<path d="M22.5629 16.0591C21.8209 16.0839 21.118 16.3977 20.6042 16.9335C20.0904 17.4693 19.8065 18.1847 19.8129 18.9271V37.0601C19.8049 37.5587 19.9286 38.0507 20.1716 38.4863C20.4145 38.9218 20.7681 39.2855 21.1967 39.5407C21.6252 39.7958 22.1134 39.9334 22.6121 39.9394C23.1108 39.9455 23.6023 39.8198 24.0369 39.5751L39.7529 30.4751C40.1888 30.2254 40.5511 29.8649 40.803 29.4302C41.0549 28.9955 41.1876 28.502 41.1876 27.9996C41.1876 27.4972 41.0549 27.0037 40.803 26.569C40.5511 26.1343 40.1888 25.7739 39.7529 25.5241L24.0369 16.4241C23.586 16.1754 23.0777 16.0495 22.5629 16.0591Z" fill="white"/>
</g>
<defs>
<clipPath id="clip0_452_38506">
<rect width="56" height="56" fill="white"/>
</clipPath>
</defs>
</svg>
