<svg width="25" height="24" viewBox="0 0 25 24" fill="none" xmlns="http://www.w3.org/2000/svg">
<path d="M12.5286 0.000292462C10.4553 0.0147552 8.42107 0.566165 6.62429 1.60077C4.82751 2.63538 3.32946 4.11788 2.27615 5.90375C1.22284 7.68963 0.65023 9.71795 0.614125 11.791C0.578019 13.864 1.07966 15.9111 2.07013 17.7325C2.08781 17.7802 2.08781 17.8326 2.07013 17.8802L1.2209 23.6771C1.21561 23.714 1.2193 23.7515 1.23165 23.7866C1.24401 23.8217 1.26467 23.8533 1.29187 23.8787C1.31907 23.9041 1.352 23.9225 1.38786 23.9324C1.42373 23.9423 1.46145 23.9434 1.49783 23.9356L7.24858 22.8095C7.29606 22.7909 7.34879 22.7909 7.39627 22.8095C8.9977 23.5817 10.7507 23.9884 12.5286 24.0002C15.6924 23.9866 18.7259 22.7381 20.9829 20.5208C23.2398 18.3035 24.5419 15.2926 24.6116 12.1295C24.6288 10.5358 24.3284 8.9546 23.7278 7.47827C23.1272 6.00194 22.2386 4.66004 21.1138 3.5309C19.9889 2.40176 18.6504 1.50801 17.1764 0.901825C15.7024 0.29564 14.1223 -0.0108344 12.5286 0.000292462ZM12.6116 21.8956C10.9101 21.8992 9.2369 21.4602 7.75627 20.6218C7.70229 20.6041 7.6441 20.6041 7.59012 20.6218L5.9932 20.9356L4.83012 21.1664L3.65782 21.3972L3.8332 20.2064L4.01782 18.9141L4.23936 17.4095C4.25769 17.3588 4.25769 17.3033 4.23936 17.2526C3.07475 15.393 2.56121 13.1991 2.77948 11.0159C2.99775 8.83264 3.93545 6.78386 5.44514 5.19168C6.95483 3.5995 8.95088 2.55423 11.1194 2.22023C13.288 1.88623 15.5061 2.28245 17.4249 3.34657C19.3437 4.4107 20.8544 6.08238 21.7195 8.09877C22.5846 10.1152 22.755 12.3619 22.2039 14.4857C21.6528 16.6095 20.4115 18.4899 18.6751 19.8312C16.9387 21.1725 14.8058 21.8987 12.6116 21.8956ZM8.70704 6.02797H9.27011C9.36895 6.02626 9.46644 6.05105 9.55247 6.09974C9.6385 6.14844 9.70993 6.21927 9.75934 6.30489C9.82813 6.40042 9.88111 6.50639 9.91626 6.61873C10.1563 7.20027 10.7378 8.95411 10.7378 8.95411C10.7683 9.09951 10.7632 9.25012 10.723 9.39315C10.6829 9.53617 10.6088 9.66739 10.507 9.77565L9.80549 10.4772C9.7357 10.5455 9.6899 10.6346 9.67493 10.7311C9.65995 10.8276 9.67661 10.9263 9.72242 11.0126C10.5708 12.6755 11.8989 14.0453 13.5347 14.9449C13.6924 15.0094 13.8663 15.0227 14.032 14.983C14.1976 14.9432 14.3466 14.8524 14.4578 14.7233L15.4732 13.551C15.5087 13.5095 15.5574 13.4814 15.6111 13.4714C15.6648 13.4613 15.7204 13.4699 15.7686 13.4956L18.4085 14.9726C18.4457 14.994 18.4764 15.025 18.4975 15.0623C18.5186 15.0997 18.5293 15.142 18.5285 15.1849V15.5726C18.5303 15.7046 18.5084 15.8359 18.4639 15.9602C18.2729 16.5351 17.8986 17.0315 17.3984 17.3733C16.8982 17.7151 16.2997 17.8835 15.6947 17.8525C13.3593 17.8525 10.3132 15.6279 8.91011 13.8741C7.50704 12.1203 6.5655 10.0064 6.5655 9.07411C6.56335 8.51941 6.69074 7.97186 6.93753 7.47507C7.18432 6.97828 7.5437 6.54598 7.98704 6.21258C8.20195 6.07756 8.45367 6.01301 8.70704 6.02797Z" fill="#404040"/>
</svg>
