<svg width="24" height="24" viewBox="0 0 24 24" fill="none" xmlns="http://www.w3.org/2000/svg">
<path d="M11.9163 0.000292462C9.84295 0.0147552 7.80876 0.566165 6.01198 1.60077C4.21521 2.63538 2.71715 4.11788 1.66385 5.90375C0.61054 7.68963 0.0379255 9.71795 0.00182002 11.791C-0.0342854 13.864 0.46735 15.9111 1.45783 17.7325C1.4755 17.7802 1.4755 17.8326 1.45783 17.8802L0.6086 23.6771C0.603304 23.714 0.606992 23.7515 0.619348 23.7866C0.631703 23.8217 0.652361 23.8533 0.679561 23.8787C0.706761 23.9041 0.739696 23.9225 0.775558 23.9324C0.81142 23.9423 0.849147 23.9434 0.885522 23.9356L6.63627 22.8095C6.68376 22.7909 6.73648 22.7909 6.78397 22.8095C8.3854 23.5817 10.1384 23.9884 11.9163 24.0002C15.0801 23.9866 18.1136 22.7381 20.3706 20.5208C22.6275 18.3035 23.9296 15.2926 23.9993 12.1295C24.0165 10.5358 23.7161 8.9546 23.1155 7.47827C22.5149 6.00194 21.6263 4.66004 20.5014 3.5309C19.3766 2.40176 18.0381 1.50801 16.5641 0.901825C15.09 0.29564 13.51 -0.0108344 11.9163 0.000292462ZM11.9993 21.8956C10.2978 21.8992 8.6246 21.4602 7.14396 20.6218C7.08998 20.6041 7.03179 20.6041 6.97781 20.6218L5.38089 20.9356L4.21782 21.1664L3.04552 21.3972L3.2209 20.2064L3.40551 18.9141L3.62705 17.4095C3.64538 17.3588 3.64538 17.3033 3.62705 17.2526C2.46245 15.393 1.94891 13.1991 2.16717 11.0159C2.38544 8.83264 3.32314 6.78386 4.83283 5.19168C6.34253 3.5995 8.33858 2.55423 10.5071 2.22023C12.6757 1.88623 14.8938 2.28245 16.8126 3.34657C18.7314 4.4107 20.2421 6.08238 21.1072 8.09877C21.9723 10.1152 22.1427 12.3619 21.5916 14.4857C21.0405 16.6095 19.7992 18.4899 18.0628 19.8312C16.3264 21.1725 14.1935 21.8987 11.9993 21.8956ZM8.09473 6.02797H8.65781C8.75665 6.02626 8.85414 6.05105 8.94017 6.09974C9.0262 6.14844 9.09762 6.21927 9.14704 6.30489C9.21582 6.40042 9.26881 6.50639 9.30396 6.61873C9.54396 7.20027 10.1255 8.95411 10.1255 8.95411C10.156 9.09951 10.1509 9.25012 10.1107 9.39315C10.0706 9.53617 9.99646 9.66739 9.89472 9.77565L9.19319 10.4772C9.1234 10.5455 9.07759 10.6346 9.06262 10.7311C9.04765 10.8276 9.06431 10.9263 9.11011 11.0126C9.95853 12.6755 11.2866 14.0453 12.9224 14.9449C13.0801 15.0094 13.254 15.0227 13.4197 14.983C13.5853 14.9432 13.7343 14.8524 13.8455 14.7233L14.8609 13.551C14.8964 13.5095 14.9451 13.4814 14.9988 13.4714C15.0525 13.4613 15.1081 13.4699 15.1562 13.4956L17.7962 14.9726C17.8334 14.994 17.8641 15.025 17.8852 15.0623C17.9063 15.0997 17.917 15.142 17.9162 15.1849V15.5726C17.918 15.7046 17.8961 15.8359 17.8516 15.9602C17.6606 16.5351 17.2863 17.0315 16.7861 17.3733C16.2859 17.7151 15.6874 17.8835 15.0824 17.8525C12.747 17.8525 9.70088 15.6279 8.29781 13.8741C6.89473 12.1203 5.9532 10.0064 5.9532 9.07411C5.95105 8.51941 6.07844 7.97186 6.32523 7.47507C6.57202 6.97828 6.93139 6.54598 7.37473 6.21258C7.58965 6.07756 7.84136 6.01301 8.09473 6.02797Z" fill="white"/>
</svg>
