<svg width="76" height="25" viewBox="0 0 76 25" fill="none" xmlns="http://www.w3.org/2000/svg">
<path d="M31.9191 7.88018H27.0383V6.11995H31.8039V4.31396H27.0383V2.72598H31.9191V0.887695H24.9545V9.7077H31.9191V7.88018ZM18.236 9.71039L21.2573 2.80134L21.2667 9.7077H23.4034V0.887695H19.9273L17.4231 6.87088L14.6946 0.887695H11.2901V9.23938L7.73933 0.887695H4.64639L0.908691 9.7077H3.17623L3.98606 7.74292H8.32491L9.12851 9.7077H13.3708V2.79327L16.3983 9.7077L18.236 9.71039ZM4.72737 5.90194L6.1477 2.38685L7.57114 5.90194H4.72737ZM37.7998 16.0677H31.128L28.4742 18.9557L25.9077 16.0677H17.5196V24.8877H25.78L28.4493 21.9674L31.019 24.8877H35.0712V21.9298H37.6721C39.4942 21.9298 41.3039 21.4237 41.3039 18.9745C41.3039 16.536 39.4506 16.0677 37.7998 16.0677ZM24.7272 23.0521H19.6034V21.2973H24.179V19.494H19.6003V17.8925H24.83L27.1099 20.4602L24.7272 23.0521ZM32.9937 24.0856L29.7917 20.4898L32.9937 17.0124V24.0856ZM37.7686 20.1372H35.0712V17.8898H37.7904C38.5442 17.8898 39.0675 18.202 39.0675 18.9745C39.0675 19.7335 38.5691 20.1372 37.7686 20.1372ZM50.2432 9.71039H52.682L53.4669 7.74023H57.7964L58.6094 9.7077H62.8548V3.08664L66.8105 9.7077H69.7633V0.887695H67.6328V7.03236L63.9636 0.887695H60.7866V9.23131L57.2576 0.887695H54.1366L51.1932 7.82366H50.2588C49.7137 7.82366 49.125 7.716 48.8042 7.36611C48.4117 6.92471 48.231 6.24107 48.231 5.29904C48.231 4.37317 48.4709 3.67069 48.8291 3.29927C49.2402 2.89285 49.6701 2.77712 50.4332 2.77712H52.411V0.887695H50.3927C48.9537 0.887695 47.8978 1.21067 47.225 1.91584C46.3311 2.85786 46.1037 4.05558 46.1037 5.36364C46.1037 6.96777 46.4868 7.98246 47.2219 8.73069C47.9445 9.47893 49.2278 9.71039 50.2432 9.71039ZM55.6441 2.38685L57.0894 5.90194H54.2114L55.6441 2.38685Z" fill="white"/>
<path d="M49.835 4.34357C49.8164 4.37048 49.67 4.68808 49.67 5.29904C49.67 5.90463 49.7634 6.19531 49.835 6.32719C49.9681 6.35766 50.1055 6.37126 50.2431 6.36757L51.1464 4.23322H50.4175C49.9472 4.23322 49.8973 4.28705 49.8382 4.34087L49.835 4.34357ZM42.9515 0.887695H45.0788V9.7077H42.9515V0.887695ZM35.4543 6.49945H37.6906C38.4382 6.49945 38.9054 6.56674 39.2106 6.87626C39.5875 7.30151 39.5377 8.06051 39.5377 8.59343L39.547 9.7077H41.6526V7.97169C41.6526 7.18578 41.5997 6.79551 41.3038 6.3568C41.0456 6.03207 40.6889 5.77505 40.2728 5.61395C40.8147 5.39594 41.7429 4.66654 41.7429 3.26159C41.7429 2.27919 41.3442 1.70322 40.6901 1.30757C40.0111 0.914611 39.2262 0.887695 38.161 0.887695H33.3643V9.7077H35.4511V6.49945H35.4543ZM35.4543 2.72598H38.0208C38.3821 2.72598 38.7621 2.74482 39.0082 2.88478C39.2792 3.01397 39.4442 3.28581 39.4442 3.66531C39.4442 4.0475 39.2885 4.35972 39.0175 4.49967C38.7279 4.67731 38.3915 4.68269 37.9865 4.68269H35.4511V2.72598H35.4543ZM50.6823 18.4389C50.6823 17.4323 50.268 16.8805 49.6139 16.4795C48.9255 16.1108 48.1562 16.065 47.1034 16.065H42.288V24.885H44.3811V21.666H46.6082C47.3713 21.666 47.8323 21.7413 48.1406 22.0562C48.5268 22.468 48.477 23.254 48.477 23.7842V24.8877H50.567V23.1382C50.5608 22.3604 50.5203 21.9594 50.2244 21.5287C49.9757 21.2004 49.6202 20.9429 49.2027 20.7886C49.7478 20.5679 50.6791 19.8519 50.6823 18.4389ZM47.9444 19.6904C47.6641 19.86 47.3214 19.8735 46.9134 19.8735H44.378V17.8925H46.9477C47.3152 17.8925 47.689 17.9006 47.9444 18.0513C48.2123 18.194 48.3742 18.4685 48.3742 18.8453C48.3742 19.2221 48.2123 19.5263 47.9444 19.6904ZM64.3778 19.5262L63.2565 19.494C62.9806 19.5076 62.7042 19.4738 62.4435 19.3944C62.1819 19.2948 61.9888 19.0714 61.9888 18.7376C61.9888 18.4577 62.0729 18.2451 62.3034 18.0998C62.5121 17.9571 62.7581 17.941 63.1381 17.941H66.963V16.065H62.7862C60.5965 16.065 59.8022 17.4107 59.8022 18.6919C59.8022 21.4803 62.2473 21.3565 64.194 21.4184C64.5616 21.4184 64.7796 21.4803 64.9385 21.6148C65.0232 21.6929 65.0892 21.7847 65.1325 21.885C65.1758 21.9852 65.1956 22.092 65.1908 22.1989C65.1908 22.4384 65.0911 22.6376 64.9478 22.7722C64.7703 22.9391 64.4899 22.9902 64.0975 22.9902H60.0514V24.8823H64.113C66.2155 24.8823 67.3898 23.9968 67.3898 22.0993C67.3898 21.1923 67.1717 20.654 66.7668 20.2314C66.284 19.7496 65.5085 19.5559 64.3778 19.5262ZM51.8378 24.885H58.7962V23.0548L53.9123 23.0467V21.2946H58.6778V19.494H53.9123V17.8898H58.7962V16.065H51.8378V24.885ZM72.8966 19.5262L71.7753 19.494C71.4994 19.5072 71.2232 19.4733 70.9624 19.3944C70.7038 19.2948 70.5076 19.0714 70.5076 18.7376C70.5076 18.4577 70.5917 18.2451 70.8222 18.0998C71.0309 17.9571 71.2801 17.941 71.6601 17.941H75.485V16.065H71.305C69.1184 16.065 68.3211 17.4107 68.3211 18.6919C68.3211 21.4803 70.7661 21.3565 72.716 21.4184C73.0804 21.4184 73.2953 21.4803 73.4604 21.6148C73.6037 21.7387 73.7096 21.9378 73.7096 22.1989C73.7132 22.4089 73.6279 22.6127 73.4697 22.7722C73.2922 22.9391 73.0119 22.9902 72.6163 22.9902H68.5734V24.8823H72.635C74.7375 24.8823 75.9086 23.9968 75.9086 22.0993C75.9086 21.1923 75.6906 20.654 75.2856 20.2314C74.806 19.7496 74.0273 19.5559 72.8966 19.5262Z" fill="white"/>
</svg>
