<svg width="40" height="24" viewBox="0 0 40 24" fill="none" xmlns="http://www.w3.org/2000/svg">
<path fill-rule="evenodd" clip-rule="evenodd" d="M20.0105 20.8893C22.1192 22.8255 24.9509 24 28.0311 24C34.6461 24 40.0002 18.6232 40.0002 12.0102C40.0002 5.377 34.6461 0 28.0311 0C24.9509 0 22.1192 1.17423 20.0105 3.11074C17.5919 5.31493 16.062 8.4875 16.062 12.0102C16.0623 15.5329 17.5919 18.7057 20.0105 20.8893Z" fill="#D9D9D9"/>
<path fill-rule="evenodd" clip-rule="evenodd" d="M23.8761 10.7332C23.8347 10.3006 23.752 9.88867 23.6693 9.45588H16.3514C16.4341 9.02334 16.5582 8.6114 16.682 8.19922H23.318C23.1739 7.76554 23.0084 7.33926 22.8219 6.92195H17.199C17.4058 6.48559 17.6335 6.05934 17.8812 5.64468H22.1193C21.8466 5.20471 21.5426 4.78475 21.2098 4.38801H18.7909C19.1651 3.93266 19.5728 3.50572 20.0106 3.11074C17.8815 1.19484 15.0699 0 11.9691 0C5.37471 0 0 5.377 0 12.0102C0 18.6232 5.37471 24 11.9691 24C15.0699 24 17.8812 22.8255 20.0106 20.8893C20.4417 20.5012 20.8426 20.081 21.2098 19.6324H18.7909C18.46 19.2204 18.1708 18.8085 17.8812 18.3551H22.1193C22.3857 17.9477 22.6207 17.5207 22.8221 17.0778H17.199C17.0129 16.6659 16.827 16.2539 16.682 15.8209H23.318C23.4625 15.409 23.5661 14.9767 23.6691 14.5436C23.7518 14.1317 23.8345 13.6994 23.8759 13.2664C23.9178 12.8487 23.9386 12.4292 23.9382 12.0095C23.9382 11.5776 23.9175 11.1451 23.8761 10.7332Z" fill="white"/>
<path fill-rule="evenodd" clip-rule="evenodd" d="M38.4087 14.7915C38.4087 14.565 38.5741 14.4004 38.7807 14.4004C39.0079 14.4004 39.1731 14.5653 39.1731 14.7915C39.1731 14.9976 39.0077 15.183 38.7807 15.183C38.5741 15.183 38.4087 14.9973 38.4087 14.7915ZM38.7807 15.0798C38.9461 15.0798 39.0904 14.9561 39.0904 14.7915C39.0904 14.6268 38.9459 14.5032 38.7807 14.5032C38.6357 14.5032 38.4914 14.6268 38.4914 14.7915C38.4914 14.9561 38.6359 15.0798 38.7807 15.0798ZM38.7393 14.9561H38.6566V14.6266H38.8839C38.9252 14.6475 38.9252 14.6887 38.9252 14.7299C38.9252 14.7503 38.9048 14.7915 38.8634 14.8123L38.9461 14.9563H38.8425L38.8011 14.8327H38.7393V14.9561V14.7709H38.7807C38.8011 14.7709 38.8221 14.7709 38.8221 14.75C38.8425 14.75 38.8425 14.7297 38.8425 14.7088C38.8425 14.7088 38.8425 14.6884 38.8221 14.6884C38.8221 14.6676 38.8011 14.6884 38.7807 14.6884H38.7393V14.9561Z" fill="#4E5258"/>
<path fill-rule="evenodd" clip-rule="evenodd" d="M27.9091 9.24932L27.6813 10.5678C27.2266 10.3411 26.8957 10.2383 26.5237 10.2383C25.552 10.2383 24.87 11.1858 24.87 12.5249C24.87 13.4521 25.3247 14.0081 26.0899 14.0081C26.3996 14.0081 26.7719 13.9053 27.1852 13.6994L26.958 15.0792C26.4824 15.2029 26.1724 15.265 25.8208 15.265C24.4153 15.265 23.547 14.2554 23.547 12.6282C23.547 10.465 24.7459 8.94043 26.4617 8.94043C26.6889 8.94043 26.8955 8.96104 27.0609 9.00226L27.5779 9.12591C27.7436 9.18774 27.785 9.20835 27.9091 9.24932ZM23.7331 10.1559H23.609C23.1752 10.1559 22.927 10.362 22.5341 10.9591L22.6582 10.1968H21.4797L20.6738 15.1411H21.9765C22.4516 12.1128 22.5757 11.5978 23.1959 11.5978H23.2786C23.4027 11.0004 23.5679 10.5676 23.7747 10.1762L23.7331 10.1559ZM16.2499 15.0792C15.8986 15.2029 15.6091 15.2441 15.3198 15.2441C14.6583 15.2441 14.286 14.8734 14.286 14.1526C14.286 14.0289 14.3067 13.8643 14.3274 13.7198L14.4101 13.2254L14.4722 12.8343L15.0303 9.45541H16.312L16.1672 10.1971H16.8288L16.6633 11.4125H16.0018L15.6505 13.4727C15.6298 13.5551 15.6298 13.6172 15.6298 13.6788C15.6298 13.9261 15.7539 14.0291 16.0638 14.0291C16.2086 14.0291 16.3324 14.0291 16.4151 13.9879L16.2499 15.0792ZM11.2679 11.7626C11.2679 12.3809 11.5572 12.8132 12.2394 13.143C12.7769 13.3903 12.8596 13.4725 12.8596 13.6786C12.8596 13.9877 12.6321 14.1317 12.1153 14.1317C11.7226 14.1317 11.3711 14.0701 10.9577 13.9465L10.7716 15.0792L10.8336 15.1001L11.0611 15.1413C11.1436 15.1617 11.2472 15.1825 11.4124 15.1825C11.7017 15.2237 11.9499 15.2237 12.1153 15.2237C13.4795 15.2237 14.1206 14.7085 14.1206 13.5758C14.1206 12.8957 13.852 12.5041 13.2111 12.1954C12.653 11.9481 12.591 11.8865 12.591 11.6598C12.591 11.3922 12.8185 11.2685 13.2318 11.2685C13.48 11.2685 13.8313 11.2891 14.1622 11.3303L14.3481 10.1973C14.0174 10.1355 13.5007 10.0943 13.2111 10.0943C11.764 10.094 11.2472 10.8563 11.2679 11.7626ZM37.8111 15.1413H36.5912L36.6535 14.6673C36.3019 15.038 35.9296 15.2029 35.454 15.2029C34.5032 15.2029 33.883 14.3999 33.883 13.1638C33.883 11.5156 34.8548 10.1147 35.9914 10.1147C36.5085 10.1147 36.8805 10.3414 37.2323 10.7945L37.5215 9.06408H38.8032L37.8111 15.1413ZM35.909 13.9877C36.5087 13.9877 36.9221 13.2872 36.9221 12.3188C36.9221 11.6802 36.6943 11.3505 36.2396 11.3505C35.6608 11.3505 35.227 12.0303 35.227 12.9987C35.227 13.6582 35.4542 13.9877 35.909 13.9877ZM20.2189 15.038C19.7639 15.1825 19.3505 15.2441 18.8751 15.2441C17.428 15.2441 16.6837 14.4821 16.6837 13.0193C16.6837 11.3301 17.6348 10.0734 18.9372 10.0734C20.0121 10.0734 20.694 10.7739 20.694 11.8657C20.694 12.2367 20.6527 12.587 20.5286 13.1017H17.9657C17.945 13.1638 17.945 13.205 17.945 13.2462C17.945 13.8231 18.3379 14.1113 19.0819 14.1113C19.5574 14.1113 19.9707 14.0289 20.4257 13.8022L20.2189 15.038ZM19.4953 12.0921V11.8451C19.4953 11.4331 19.2678 11.2064 18.8751 11.2064C18.4618 11.2064 18.1723 11.5156 18.0482 12.0921H19.4953ZM6.32726 15.1413H5.04556L5.78981 10.4648L4.11543 15.1413H3.22642L3.12302 10.506L2.33765 15.1413H1.13867L2.15152 9.06408H4.01203L4.07407 12.8341L5.31416 9.06408H7.34011L6.32726 15.1413ZM9.5315 12.9369C9.40742 12.9369 9.34538 12.9165 9.24197 12.9165C8.5184 12.9165 8.1464 13.1842 8.1464 13.6786C8.1464 13.9877 8.31184 14.1729 8.60113 14.1729C9.13857 14.1729 9.51082 13.6786 9.5315 12.9369ZM10.4823 15.1413H9.40718L9.42786 14.6261C9.09697 15.038 8.66292 15.2237 8.06344 15.2237C7.36055 15.2237 6.88514 14.6882 6.88514 13.8846C6.88514 12.6694 7.71187 11.969 9.15901 11.969C9.30377 11.969 9.4899 11.9896 9.69646 12.01C9.73782 11.8453 9.73782 11.7835 9.73782 11.7011C9.73782 11.3716 9.51033 11.2479 8.91085 11.2479C8.53884 11.2479 8.12523 11.2891 7.83595 11.3716L7.64983 11.4334L7.52575 11.454L7.71187 10.3416C8.35272 10.1561 8.78676 10.0943 9.26241 10.0943C10.3787 10.0943 10.9782 10.5887 10.9782 11.5362C10.9782 11.7835 10.9575 11.969 10.8748 12.5252L10.5852 14.2765L10.5439 14.5851L10.5232 14.8324L10.5025 15.0181L10.4823 15.1413ZM29.997 12.9369C29.852 12.9369 29.7902 12.9165 29.7078 12.9165C28.9635 12.9165 28.591 13.1842 28.591 13.6786C28.591 13.9877 28.7774 14.1729 29.0667 14.1729C29.5837 14.1729 29.9761 13.6786 29.997 12.9369ZM30.9479 15.1413H29.873L29.8934 14.6261C29.5628 15.038 29.1287 15.2237 28.5292 15.2237C27.8263 15.2237 27.3507 14.6882 27.3507 13.8846C27.3507 12.6694 28.1774 11.969 29.6246 11.969C29.7696 11.969 29.9557 11.9896 30.1416 12.01C30.1829 11.8453 30.2039 11.7835 30.2039 11.7011C30.2039 11.3716 29.9761 11.2479 29.3771 11.2479C29.0046 11.2479 28.5708 11.2891 28.2813 11.3716L28.1159 11.4334L27.9918 11.454L28.1777 10.3416C28.8188 10.1561 29.2526 10.0943 29.7282 10.0943C30.8445 10.0943 31.4233 10.5887 31.4233 11.5362C31.4233 11.7835 31.4233 11.969 31.3201 12.5252L31.0513 14.2765L31.0099 14.5851L30.9685 14.8324L30.9481 15.0181L30.9479 15.1413ZM34.4207 10.1559H34.2966C33.8628 10.1559 33.6147 10.362 33.2217 10.9591L33.3458 10.1968H32.1673L31.3817 15.1411H32.6634C33.139 12.1128 33.2631 11.5978 33.8833 11.5978H33.966C34.0901 11.0004 34.2553 10.5676 34.4621 10.1762L34.4207 10.1559Z" fill="#4E5258"/>
</svg>
