<svg width="91" height="24" viewBox="0 0 91 24" fill="none" xmlns="http://www.w3.org/2000/svg">
<path d="M70.3445 6.26074H65.4334C65.1445 6.26074 64.8556 6.55887 64.7112 6.857L62.689 19.9747C62.689 20.2728 62.8334 20.4219 63.1223 20.4219H65.7223C66.0112 20.4219 66.1556 20.2728 66.1556 19.9747L66.7334 16.2481C66.7334 15.95 67.0223 15.6518 67.4556 15.6518H69.0445C72.3668 15.6518 74.2445 14.0121 74.6779 10.7327C74.9668 9.3911 74.6779 8.19858 74.1001 7.45326C73.2334 6.70794 71.9334 6.26074 70.3445 6.26074ZM70.9223 11.1799C70.6334 12.9687 69.3334 12.9687 68.0334 12.9687H67.1667L67.7445 9.54016C67.7445 9.3911 67.889 9.24204 68.1779 9.24204H68.4668C69.3334 9.24204 70.2001 9.24204 70.6334 9.83829C70.9223 9.98736 70.9223 10.4346 70.9223 11.1799Z" fill="white"/>
<path d="M34.9554 6.26074H30.0443C29.7554 6.26074 29.4665 6.55887 29.322 6.857L27.2998 19.9747C27.2998 20.2728 27.4443 20.4219 27.7331 20.4219H30.0443C30.3331 20.4219 30.622 20.1238 30.7665 19.8256L31.3443 16.2481C31.3443 15.9499 31.6331 15.6518 32.0665 15.6518H33.6554C36.9776 15.6518 38.8554 14.0121 39.2887 10.7327C39.5776 9.3911 39.2887 8.19858 38.7109 7.45326C37.8443 6.70794 36.6887 6.26074 34.9554 6.26074ZM35.5332 11.1799C35.2443 12.9687 33.9443 12.9687 32.6443 12.9687H31.922L32.4998 9.54016C32.4998 9.3911 32.6443 9.24204 32.9331 9.24204H33.222C34.0887 9.24204 34.9554 9.24204 35.3887 9.83829C35.5332 9.98736 35.6776 10.4346 35.5332 11.1799ZM49.8332 11.0308H47.5221C47.3776 11.0308 47.0887 11.1799 47.0887 11.3289L46.9443 12.0743L46.7998 11.7761C46.2221 11.0308 45.2109 10.7327 44.0554 10.7327C41.4554 10.7327 39.1443 12.8196 38.7109 15.6518C38.422 17.1425 38.8554 18.484 39.5776 19.3784C40.2998 20.2728 41.3109 20.571 42.6109 20.571C44.7776 20.571 45.9332 19.2294 45.9332 19.2294L45.7887 19.9747C45.7887 20.2728 45.9332 20.4219 46.2221 20.4219H48.3887C48.6776 20.4219 48.9665 20.1238 49.111 19.8256L50.411 11.478C50.2665 11.3289 49.9776 11.0308 49.8332 11.0308ZM46.5109 15.8009C46.2221 17.1425 45.2109 18.1859 43.7665 18.1859C43.0443 18.1859 42.4665 17.8878 42.1776 17.5897C41.8887 17.1425 41.7443 16.5462 41.7443 15.8009C41.8887 14.4593 43.0443 13.4158 44.3443 13.4158C45.0665 13.4158 45.4998 13.714 45.9332 14.0121C46.3665 14.4593 46.5109 15.2046 46.5109 15.8009Z" fill="white"/>
<path d="M85.0775 11.0315H82.7664C82.6219 11.0315 82.333 11.1806 82.333 11.3297L82.1886 12.075L82.0441 11.7768C81.4664 11.0315 80.4552 10.7334 79.2997 10.7334C76.6997 10.7334 74.3886 12.8203 73.9552 15.6525C73.6663 17.1432 74.0997 18.4848 74.8219 19.3792C75.5441 20.2735 76.5552 20.5717 77.8552 20.5717C80.0219 20.5717 81.1775 19.2301 81.1775 19.2301L81.033 19.9754C81.033 20.2735 81.1775 20.4226 81.4664 20.4226H83.633C83.9219 20.4226 84.2108 20.1245 84.3553 19.8263L85.6553 11.4787C85.5108 11.3297 85.3664 11.0315 85.0775 11.0315ZM81.7552 15.8016C81.4664 17.1432 80.4552 18.1866 79.0108 18.1866C78.2886 18.1866 77.7108 17.8885 77.4219 17.5904C77.133 17.1432 76.9886 16.5469 76.9886 15.8016C77.133 14.46 78.2886 13.4166 79.5886 13.4166C80.3108 13.4166 80.7441 13.7147 81.1775 14.0128C81.7552 14.46 81.8997 15.2053 81.7552 15.8016Z" fill="white"/>
<path d="M62.4001 11.0312H59.9445C59.6556 11.0312 59.5112 11.1803 59.3667 11.3294L56.189 16.3976L54.7445 11.6275C54.6001 11.3294 54.4556 11.1803 54.0223 11.1803H51.7112C51.4223 11.1803 51.2778 11.4784 51.2778 11.7766L53.8778 19.677L51.4223 23.2546C51.2778 23.5527 51.4223 23.9999 51.7112 23.9999H54.0223C54.3112 23.9999 54.4556 23.8508 54.6001 23.7018L62.5445 11.9256C62.9778 11.4784 62.689 11.0312 62.4001 11.0312Z" fill="white"/>
<path d="M87.822 6.70817L85.7998 20.124C85.7998 20.4221 85.9442 20.5712 86.2331 20.5712H88.2554C88.5442 20.5712 88.8331 20.2731 88.9776 19.9749L90.9998 6.85724C90.9998 6.55911 90.8554 6.41004 90.5665 6.41004H88.2554C88.1109 6.26098 87.9665 6.41004 87.822 6.70817Z" fill="white"/>
<path d="M16.6111 1.78878C15.6 0.59626 13.7222 0 11.1222 0H3.90001C3.46667 0 3.03334 0.447195 2.88889 0.894389L0 20.4219C0 20.8691 0.288889 21.1672 0.577779 21.1672H5.05556L6.21112 13.863V14.1611C6.35557 13.714 6.7889 13.2668 7.22223 13.2668H9.3889C13.5778 13.2668 16.7556 11.478 17.7667 6.55885V6.11165C17.6223 6.11165 17.6223 6.11165 17.7667 6.11165C17.9111 4.17381 17.6223 2.9813 16.6111 1.78878Z" fill="white"/>
<path d="M17.6226 6.11133V6.55852C16.6115 11.6267 13.4337 13.2664 9.24479 13.2664H7.07812C6.64478 13.2664 6.21145 13.7136 6.067 14.1608L4.62256 23.2538C4.62256 23.5519 4.767 23.85 5.20034 23.85H8.9559C9.38923 23.85 9.82257 23.5519 9.82257 23.1047V22.9556L10.5448 18.3346V18.0365C10.5448 17.5893 10.9781 17.2912 11.4115 17.2912H11.9892C15.6004 17.2912 18.4892 15.8005 19.2115 11.3286C19.5004 9.53982 19.3559 7.9001 18.4892 6.85665C18.3448 6.55852 18.0559 6.26039 17.6226 6.11133Z" fill="#ACACAC" fill-opacity="0.3"/>
<path d="M16.611 5.66399C16.4665 5.66399 16.3221 5.51493 16.1776 5.51493C16.0332 5.51493 15.8887 5.51493 15.7443 5.36586C15.1665 5.2168 14.5887 5.2168 13.8665 5.2168H8.23316C8.08872 5.2168 7.94427 5.2168 7.79983 5.36586C7.51094 5.51493 7.36649 5.81306 7.36649 6.11119L6.21094 13.8625V14.1607C6.35538 13.7135 6.78872 13.2663 7.22205 13.2663H9.38872C13.5776 13.2663 16.7554 11.4775 17.7665 6.55838C17.7665 6.40931 17.7665 6.26025 17.911 6.11119C17.6221 5.96212 17.4776 5.81306 17.1887 5.81306C16.7554 5.66399 16.7554 5.66399 16.611 5.66399Z" fill="#ACACAC"/>
</svg>
