<svg width="74" height="24" viewBox="0 0 74 24" fill="none" xmlns="http://www.w3.org/2000/svg">
<path d="M32.0797 23.6H26.0414L29.8153 0.414295H35.8541L32.0797 23.6ZM20.9617 0.414295L15.2051 16.3616L14.5239 12.9275L14.5245 12.9288L12.4928 2.5019C12.4928 2.5019 12.2471 0.414295 9.62844 0.414295H0.11167L0 0.806883C0 0.806883 2.91024 1.4122 6.31618 3.45701L11.5622 23.6006H17.8536L27.4603 0.414295H20.9617ZM68.4556 23.6H74L69.1659 0.413675H64.312C62.0705 0.413675 61.5246 2.14156 61.5246 2.14156L52.519 23.6H58.8135L60.0723 20.156H67.7483L68.4556 23.6ZM61.8112 15.3984L64.9839 6.72176L66.7687 15.3984H61.8112ZM52.9911 5.98992L53.8529 1.01093C53.8529 1.01093 51.1939 0 48.422 0C45.4255 0 38.3096 1.30925 38.3096 7.67563C38.3096 13.6656 46.6613 13.74 46.6613 16.8863C46.6613 20.0326 39.1701 19.4688 36.6979 17.4848L35.8002 22.6908C35.8002 22.6908 38.4964 24 42.6158 24C46.7364 24 52.9527 21.8671 52.9527 16.062C52.9527 10.0336 44.5259 9.47236 44.5259 6.85138C44.5266 4.22979 50.4072 4.56655 52.9911 5.98992Z" fill="white"/>
</svg>
