<svg width="135" height="24" viewBox="0 0 135 24" fill="none" xmlns="http://www.w3.org/2000/svg">
<g clip-path="url(#clip0_2332_3240)">
<path fill-rule="evenodd" clip-rule="evenodd" d="M0.0131836 8.1257L1.31367 3.78809H7.73826C9.10384 3.78809 10.169 4.1736 10.9337 4.94229C11.6996 5.71215 12.0819 6.78283 12.0819 8.15432C12.0819 9.02932 11.8989 9.75713 11.5346 10.3377C11.1702 10.9172 10.653 11.2951 9.98477 11.4697C10.8924 11.6952 11.5683 12.1193 12.0128 12.7437C12.4579 13.3669 12.6799 14.2063 12.6799 15.2583C12.6799 16.7466 12.2609 17.8699 11.4224 18.628C10.5839 19.3868 9.35022 19.7653 7.72257 19.7653H1.31367V8.1257H0.0131836ZM5.84331 7.56729V9.84416H6.4767C6.86894 9.84416 7.16763 9.74603 7.37333 9.55035C7.57788 9.35409 7.68073 9.0708 7.68073 8.70047C7.68073 8.33014 7.57788 8.0486 7.37333 7.85643C7.16763 7.66484 6.86894 7.56729 6.4767 7.56729H5.84331ZM5.84331 13.2805V15.8144H6.65161C7.11939 15.8144 7.47967 15.704 7.73071 15.4843C7.98174 15.2641 8.10842 14.9516 8.10842 14.5474C8.10842 14.1356 7.98174 13.8214 7.73071 13.6053C7.47967 13.3891 7.11939 13.2805 6.65161 13.2805H5.84331Z" fill="white"/>
<path fill-rule="evenodd" clip-rule="evenodd" d="M14.3993 3.78809H19.227V15.4265H22.9722L21.6786 19.7641L14.3993 19.7653C14.3993 19.7653 14.3993 12.6473 14.3993 8.1257H13.0918L14.3923 3.78809H14.3993Z" fill="white"/>
<path fill-rule="evenodd" clip-rule="evenodd" d="M23.2383 8.1257L24.5388 3.78809H24.537H29.3223V12.5048C29.3223 13.5171 29.4229 14.2151 29.6251 14.5965C29.8267 14.9797 30.1731 15.1701 30.6635 15.1701C31.147 15.1701 31.4933 14.9733 31.7019 14.5801C31.91 14.1865 32.0146 13.496 32.0146 12.5048V3.78809H36.7999V12.4604C36.7999 13.5953 36.7371 14.5305 36.6128 15.2641C36.4878 15.9984 36.2891 16.6134 36.0166 17.1082C35.4802 18.1047 34.7521 18.8687 33.8276 19.3991C32.9031 19.9294 31.8489 20.1958 30.6635 20.1958C29.4717 20.1958 28.4147 19.9294 27.4902 19.3991C26.5662 18.8687 25.8375 18.1047 25.3023 17.1082C25.0344 16.621 24.8404 16.0141 24.7189 15.2869C24.5969 14.5591 24.537 13.6175 24.537 12.4604C24.537 12.4604 24.537 9.5854 24.537 8.1257H23.2383Z" fill="white"/>
<path fill-rule="evenodd" clip-rule="evenodd" d="M37.9922 8.1257L39.2927 3.78809H39.2822H48.2311L46.9521 8.1257H43.9827V9.67243H47.8359L46.6098 13.7525H43.9827V15.4277H48.3409L47.0474 19.7653H39.2822C39.2822 19.7653 39.2822 12.6473 39.2822 8.1257H37.9922Z" fill="white"/>
<path fill-rule="evenodd" clip-rule="evenodd" d="M56.6738 3.78809H60.545C61.7833 3.78809 62.8398 3.87045 63.7161 4.034C64.5912 4.19755 65.3042 4.44989 65.8533 4.79217C67.012 5.51998 67.9011 6.48435 68.52 7.6847C69.14 8.88505 69.4497 10.253 69.4497 11.7875C69.4497 13.3155 69.1412 14.6759 68.5258 15.8693C67.9092 17.0626 67.019 18.0264 65.8539 18.7618C65.2862 19.1105 64.5668 19.3658 63.6951 19.5252C62.8223 19.6859 61.6538 19.7653 60.1906 19.7653H56.6738V8.1257H56.6807H55.3901L56.6709 3.7951L56.6738 3.78809ZM61.4167 14.8693C62.5138 14.8623 63.3151 14.6099 63.8201 14.1117C64.3256 13.6134 64.579 12.8331 64.579 11.7711C64.579 10.732 64.3367 9.95748 63.8532 9.44813C63.3692 8.93937 62.6277 8.68411 61.6294 8.68411H61.4167V14.8693Z" fill="white"/>
<path fill-rule="evenodd" clip-rule="evenodd" d="M72.8417 8.1257L69.3755 19.7653H74.5269L74.9377 17.7472H78.562L78.9914 19.7653H84.1591L79.4848 3.78809H72.8458L71.5523 8.1257H72.8417Z" fill="white"/>
<path fill-rule="evenodd" clip-rule="evenodd" d="M75.7407 13.9677H77.7409L77.33 12.1541C77.1284 11.2376 76.9912 10.5308 76.9186 10.0355C76.846 9.54073 76.8001 9.07461 76.782 8.6377H76.6989C76.6809 9.07461 76.635 9.54073 76.5624 10.0355C76.4892 10.5308 76.352 11.2376 76.1521 12.1541L75.7407 13.9677Z" fill="#4E5258"/>
<path fill-rule="evenodd" clip-rule="evenodd" d="M84.8788 3.78809H90.9158C92.6712 3.78809 94.0124 4.2507 94.9393 5.1771C95.8649 6.10292 96.3298 7.43645 96.3298 9.17886C96.3298 10.3167 96.0956 11.2536 95.6302 11.9896C95.1636 12.7268 94.5342 13.1567 93.7422 13.2805L97.3124 19.7653H91.9228L89.5792 14.5095V19.7653H84.8788V8.13213L84.8735 8.1257H83.5835L84.8764 3.78809H84.8788ZM89.5792 7.91133V11.0468H90.33C90.7862 11.0468 91.1395 10.9137 91.387 10.6467C91.6328 10.3792 91.7578 9.99778 91.7578 9.5007C91.7578 8.9896 91.6328 8.5965 91.387 8.32313C91.1395 8.0486 90.7862 7.91133 90.33 7.91133H89.5792Z" fill="white"/>
<path fill-rule="evenodd" clip-rule="evenodd" d="M100.007 19.7653V8.1257H97.2578L98.5467 3.78809H108.168L106.863 8.1257H104.793V19.7653H100.007Z" fill="white"/>
<mask id="mask0_2332_3240" style="mask-type:luminance" maskUnits="userSpaceOnUse" x="109" y="0" width="26" height="24">
<path d="M109.934 0H135V24H109.934V0Z" fill="white"/>
</mask>
<g mask="url(#mask0_2332_3240)">
<path fill-rule="evenodd" clip-rule="evenodd" d="M120.545 11.9926L109.934 23.9908L135.001 11.9926L109.934 -0.00683594L120.545 11.9926Z" fill="white"/>
</g>
<path fill-rule="evenodd" clip-rule="evenodd" d="M113.53 11.9926L110.442 20.6614L118.092 11.9926L110.442 3.32324L113.53 11.9926Z" fill="white"/>
</g>
<defs>
<clipPath id="clip0_2332_3240">
<rect width="135" height="24" fill="white"/>
</clipPath>
</defs>
</svg>
