<svg width="73" height="24" viewBox="0 0 73 24" fill="none" xmlns="http://www.w3.org/2000/svg">
<path fill-rule="evenodd" clip-rule="evenodd" d="M9.14094 14.4797C9.57622 14.7665 11.0997 14.7665 11.9703 15.0532C11.7526 15.6267 10.0115 15.6267 9.35858 15.6267L10.0115 15.9134C10.4468 15.9134 11.0997 15.9134 11.7526 16.4869C11.3174 16.7736 9.79386 17.0603 9.14094 17.0603C9.57622 17.3471 10.6644 17.0603 11.3174 17.6338C10.8821 17.9205 8.9233 18.2073 8.70566 18.2073C9.14094 18.494 9.35858 18.2073 9.79386 18.494C10.4468 18.494 10.6644 18.494 10.8821 18.7807C10.2291 19.3542 8.27037 19.3542 7.83509 19.6409L9.57622 19.9277L6.96452 20.2144C6.96452 19.6409 8.48801 14.4797 8.70566 13.6195C9.57622 13.6195 10.8821 13.6195 11.535 13.9063C10.8821 14.4797 9.57622 14.193 9.14094 14.4797ZM3.48226 10.4654C3.91754 10.7522 4.35283 10.7522 4.78811 10.7522C5.87632 11.0389 5.44103 11.0389 5.65868 11.3256C4.78811 11.6124 4.13519 11.8991 3.26462 11.8991C3.48226 11.8991 4.13519 11.8991 4.78811 12.1858C5.44103 12.4726 5.22339 12.1858 5.22339 12.4726C4.78811 12.7593 3.04698 13.0461 2.82934 13.0461C3.26462 13.3328 4.13519 13.0461 5.00575 13.6195C4.78811 13.9063 5.00575 13.6195 4.78811 13.9063C3.6999 14.4797 2.82934 14.193 2.39406 14.4797C2.82934 14.7665 4.35283 14.4797 4.57047 15.0532C3.91754 15.3399 3.04698 15.6267 1.95877 15.6267C2.39406 15.9134 3.26462 15.6267 4.13519 16.2001C4.13519 16.4869 3.48226 16.7736 3.04698 16.7736C2.6117 16.7736 2.17641 16.7736 1.74113 16.7736C2.17641 17.0603 2.6117 16.7736 3.6999 17.3471L3.91754 17.6338C3.48226 17.9205 1.52349 17.9205 1.30585 18.2073C1.95877 18.2073 3.26462 18.2073 3.6999 18.7807C3.26462 19.0675 1.52349 19.3542 1.08821 19.3542L1.52349 19.6409C1.95877 19.6409 2.82934 19.6409 3.26462 19.9277C2.39406 20.5011 1.52349 20.5011 0.652924 20.5011C0.870566 20.7879 1.52349 20.5011 2.39406 20.7879L2.6117 21.0746C2.82934 21.0746 2.82934 21.0746 2.82934 21.3613C1.95877 21.6481 0.652924 21.6481 0.217641 21.9348C0.435283 21.9348 0.217641 21.9348 0.435283 21.9348C0.652924 21.9348 0.652924 21.9348 0.870566 21.9348C1.30585 21.9348 2.17641 21.9348 2.6117 22.5083C1.95877 23.0817 0.217641 23.0817 0.217641 23.0817C0 23.0817 0 23.0817 0 23.0817C1.08821 23.0817 1.08821 23.3685 1.95877 23.3685C2.6117 23.6552 3.6999 23.6552 4.35283 23.6552C8.48801 23.6552 13.0585 24.5154 14.7996 18.2073C15.6702 15.0532 16.1055 11.3256 12.6232 10.4654C11.9703 10.1787 6.52924 10.1787 5.65868 10.1787C4.78811 10.4654 4.57047 10.4654 3.48226 10.4654Z" fill="white"/>
<path fill-rule="evenodd" clip-rule="evenodd" d="M70.9508 8.74539C70.2979 9.03212 69.645 9.31886 68.9921 9.60559C68.3391 8.74539 68.5568 6.73825 67.9039 5.59131C67.6862 5.01785 67.2509 5.01785 67.2509 4.73111C67.4686 4.44438 67.9039 4.44438 68.1215 4.15764C68.1215 3.87091 67.9039 3.58418 67.9039 3.29744C68.1215 2.72397 68.3391 3.29744 68.1215 2.43724C67.9039 1.86377 67.6862 2.43724 67.9039 1.57704C67.9039 1.00357 67.9039 1.00357 67.9039 0.430101C67.0333 -0.143367 65.9451 -0.143367 65.0745 0.430101C64.204 1.57704 65.2922 3.29744 65.2922 3.58418C65.2922 4.15764 64.6392 3.87091 63.9863 4.15764C63.551 4.15764 63.1158 4.15764 62.4628 4.15764C61.5923 4.15764 60.5041 4.15764 60.2864 5.30458L63.3334 5.59131C62.8981 5.59131 62.0275 5.59131 61.5923 5.59131C60.5041 5.59131 60.2864 5.30458 60.0688 5.87805C60.5041 6.16478 62.2452 5.87805 63.1158 6.16478H63.3334C62.8981 6.45152 62.4628 6.16478 62.2452 6.45152C62.4628 7.02498 62.6805 6.45152 63.3334 6.73825C62.8981 7.02498 62.6805 7.02498 62.2452 7.02498C62.4628 7.59845 62.2452 7.31172 62.6805 7.31172C62.8981 7.31172 63.1158 7.31172 63.3334 7.59845H63.1158C62.8981 7.59845 62.8981 7.59845 62.8981 7.59845L62.4628 7.88519C62.4628 8.17192 62.2452 8.17192 63.1158 8.17192C63.1158 8.17192 63.1158 8.45865 63.3334 8.45865C63.3334 8.74539 63.7687 8.74539 64.204 9.03212C65.7274 9.89232 65.0745 12.7597 63.551 13.3331C61.8099 13.9066 59.1982 12.1862 57.8924 11.0393C57.8924 12.4729 59.4158 13.3331 60.2864 13.9066C60.9393 14.1933 60.0688 13.9066 60.9393 14.4801L60.2864 14.7668C60.2864 15.0535 60.2864 14.7668 60.5041 15.0535L59.8511 15.3403C59.8511 15.627 59.8511 15.3403 60.2864 15.9137L59.4158 16.2005C59.6335 16.4872 59.6335 16.2005 59.8511 16.7739C59.4158 16.7739 59.1982 16.7739 58.9806 16.7739C59.1982 17.0607 59.1982 17.0607 59.4158 17.3474H58.5453L58.7629 17.9209L57.8924 18.2076L58.11 18.7811C56.8041 19.3545 57.0218 19.6413 56.8041 19.6413C56.5865 20.2147 55.9336 19.928 55.7159 20.7882C55.2807 21.3617 55.2807 21.6484 54.8454 22.2219C54.6277 22.7954 53.9748 23.3688 54.4101 23.9423C55.063 24.229 55.2807 23.3688 55.7159 23.0821C56.1512 22.5086 56.5865 22.5086 57.0218 22.2219C58.5453 21.0749 57.6747 22.2219 58.3276 21.6484C59.6335 21.0749 61.3746 19.6413 62.2452 18.7811C62.8981 17.9209 63.7687 16.4872 64.204 15.9137C65.7274 16.7739 66.598 16.4872 66.8157 17.9209C66.8157 18.7811 66.8157 19.6413 66.8157 20.5015C67.0333 22.5086 67.2509 21.6484 67.4686 22.2219C67.6862 22.7954 66.8157 23.9423 68.3391 23.6556C69.8626 23.6556 70.5156 24.5158 70.7332 23.3688L70.0803 23.0821C70.0803 22.7954 69.8626 22.7954 69.645 22.7954C69.4274 22.5086 68.9921 22.2219 68.7744 21.9352H68.9921C69.2097 21.0749 68.9921 21.0749 68.9921 19.928C68.7744 17.6341 68.9921 15.3403 68.1215 14.4801C67.6862 13.9066 66.1627 13.0464 65.9451 12.4729C65.7274 12.1862 66.3804 9.89232 66.598 9.31886C68.1215 11.6127 67.0333 13.3331 70.9508 10.1791C72.4743 9.03212 72.039 9.89232 72.9096 9.60559C73.1273 8.74539 72.9096 8.45865 72.692 8.17192C72.2567 7.59845 71.6038 8.45865 70.9508 8.74539Z" fill="white"/>
<path fill-rule="evenodd" clip-rule="evenodd" d="M32.2111 19.9283C32.4287 18.2079 33.517 15.3405 33.9522 13.6201C34.8228 13.6201 35.911 13.3334 36.7816 13.9069C35.911 14.4803 34.8228 14.1936 34.3875 14.4803C34.8228 14.7671 36.3463 14.7671 37.2169 15.0538C36.9992 15.6273 35.0404 15.6273 34.6052 15.6273C35.0404 16.2007 35.2581 15.914 35.911 15.914C36.1287 16.2007 36.5639 16.2007 36.7816 16.4875C36.5639 16.7742 35.0404 17.0609 34.3875 17.0609C34.6052 17.0609 34.6052 17.0609 35.0404 17.0609C35.4757 17.0609 36.1287 17.3477 36.5639 17.6344C36.1287 17.9211 34.6052 18.2079 33.9522 18.2079H34.1699C34.6052 18.4946 35.0404 18.2079 35.6934 18.4946C36.1287 18.7813 35.911 18.4946 35.911 18.7813C35.4757 19.3548 33.2993 19.3548 33.0817 19.6415C33.7346 19.6415 34.3875 19.3548 34.6052 19.9283H32.2111ZM26.1171 21.9354C26.5524 21.9354 27.423 21.9354 27.8583 22.5089C27.423 22.7956 26.9877 22.7956 26.5524 22.7956C25.8995 23.0824 25.4642 22.7956 25.2466 23.0824C25.6819 23.0824 26.1171 23.0824 26.5524 23.3691C27.8583 23.6558 31.3405 23.6558 32.864 23.6558C35.6934 23.6558 36.9992 23.0824 38.5227 21.0752C39.8286 19.3548 42.005 13.0467 38.958 11.0395C37.4345 9.89259 34.3875 10.1793 32.2111 10.1793C30.9053 10.1793 30.0347 10.4661 28.7288 10.4661C28.9465 10.7528 29.3818 10.7528 29.8171 10.7528C30.9053 11.0395 30.6876 11.0395 30.6876 11.3263C30.0347 11.613 29.1641 11.8997 28.2936 11.8997C28.9465 12.1865 29.8171 11.8997 30.47 12.4732C30.0347 13.0467 28.2936 13.0467 28.0759 13.0467C28.5112 13.3334 29.3818 13.0467 30.0347 13.6201V13.9069C29.8171 13.9069 29.8171 13.9069 29.8171 13.9069C28.7288 14.4803 27.8583 14.1936 27.6406 14.4803C28.0759 14.7671 29.5994 14.4803 29.8171 15.0538C28.9465 15.3405 28.0759 15.6273 27.2054 15.6273C27.6406 15.914 28.0759 15.6273 28.5112 15.914C29.3818 16.2007 29.3818 16.2007 29.3818 16.4875C28.5112 16.7742 27.8583 16.7742 26.9877 16.7742C27.2054 17.0609 28.5112 17.0609 29.1641 17.6344C28.7288 17.6344 28.2936 17.9211 27.8583 17.9211C27.2054 18.2079 26.7701 17.9211 26.5524 18.2079C27.2054 18.2079 28.5112 18.2079 28.7288 18.7813C28.2936 19.0681 26.7701 19.3548 26.1171 19.3548L27.423 19.6415C28.0759 19.6415 28.2936 19.6415 28.5112 19.9283C27.8583 20.5017 26.1171 20.5017 25.8995 20.7885C26.3348 20.7885 26.7701 20.7885 27.2054 20.7885C27.8583 21.0752 28.0759 21.0752 28.0759 21.3619C27.423 21.3619 27.423 21.6487 26.7701 21.6487C26.3348 21.6487 25.8995 21.6487 25.4642 21.9354H26.1171Z" fill="white"/>
<path fill-rule="evenodd" clip-rule="evenodd" d="M45.2694 10.4657C45.7047 11.0391 47.0106 10.7524 47.6635 10.7524C47.0106 11.3259 46.5753 11.3259 45.7047 11.6126C45.2694 11.6126 43.7459 11.6126 43.3107 11.8993C44.1812 11.8993 45.2694 11.6126 45.9223 12.1861C45.0518 13.0463 43.5283 13.0463 42.4401 13.0463C42.8754 13.333 43.5283 13.0463 44.1812 13.333C44.8341 13.6197 44.6165 13.333 44.6165 13.6197C44.1812 13.9065 43.7459 13.9065 43.3107 14.1932C42.4401 14.1932 42.0048 14.1932 41.7872 14.4799C42.2224 14.4799 43.5283 14.4799 43.9636 15.0534C43.3107 15.3401 41.5695 15.3401 41.1342 15.6269C41.7872 15.9136 43.093 15.6269 43.3107 16.2003C42.6577 16.7738 41.1342 16.7738 40.699 16.7738C41.1342 17.0605 41.7872 16.7738 43.093 17.3473C42.8754 17.634 43.093 17.3473 42.8754 17.634C42.0048 17.9207 41.1342 17.9207 40.2637 17.9207C40.699 18.2075 41.1342 17.9207 41.7872 18.2075C42.6577 18.4942 42.6577 18.4942 42.8754 18.7809C42.2224 19.0677 40.699 19.0677 40.2637 19.3544C40.4813 19.3544 42.2224 19.6412 42.8754 19.9279C42.6577 20.2146 42.8754 19.9279 42.4401 20.2146C41.7872 20.5014 41.1342 20.5014 40.4813 20.5014L43.093 21.0748C42.8754 21.3616 43.093 21.0748 42.8754 21.3616C42.4401 21.6483 41.3519 21.6483 40.9166 21.6483C41.5695 21.935 41.3519 21.6483 42.4401 21.935C43.093 22.2218 43.5283 22.2218 43.7459 22.5085C43.9636 22.7952 43.7459 22.5085 43.9636 22.7952L42.2224 23.082L45.9223 23.6554C47.2282 23.9422 48.534 23.9422 49.8399 23.3687C50.9281 23.082 51.7987 22.5085 52.6692 21.6483C53.1045 21.0748 54.4104 19.6412 54.628 18.4942C49.187 18.4942 52.0163 18.2075 50.0575 19.9279C49.187 20.7881 45.4871 22.2218 47.0106 17.0605C47.4458 15.3401 47.8811 14.1932 48.9693 13.6197C50.0575 13.0463 52.0163 12.7595 52.0163 15.3401C52.6692 15.3401 54.8456 15.3401 55.4986 15.0534C55.9339 9.60546 51.581 9.89219 48.7517 10.4657C47.4458 10.4657 46.5753 10.4657 45.2694 10.4657Z" fill="white"/>
<path fill-rule="evenodd" clip-rule="evenodd" d="M16.7584 10.4654C16.976 10.7522 17.8466 10.7522 18.2818 10.7522C18.7171 11.0389 18.4995 10.7522 18.4995 11.3256C18.0642 11.8991 17.1936 11.8991 16.3231 11.8991C16.7584 12.1858 18.0642 11.6124 18.2818 12.4726C17.8466 13.0461 16.7584 13.0461 15.8878 13.0461C16.1054 13.3328 16.7584 13.0461 17.8466 13.6195C18.4995 13.9063 19.37 13.6195 20.2406 13.6195C19.37 14.193 18.2818 14.193 17.8466 14.4797C18.4995 14.4797 19.8053 14.4797 20.023 15.0532C19.1524 15.6267 17.8466 15.3399 17.4113 15.6267C17.8466 15.9134 18.7171 15.6267 19.5877 16.2001C19.5877 16.2001 19.5877 16.2001 19.8053 16.2001C19.1524 16.7736 17.8466 16.7736 17.1936 16.7736V17.0603C17.8466 17.0603 18.7171 17.0603 19.37 17.3471C18.9348 17.9205 17.4113 17.9205 16.7584 17.9205C17.1936 18.2073 18.4995 17.9205 19.1524 18.7807C18.7171 19.0675 16.7584 19.0675 16.3231 19.3542C16.976 19.6409 18.0642 19.3542 18.7171 19.9277C18.2818 20.2144 16.5407 20.5011 15.8878 20.5011C16.3231 20.5011 17.4113 20.5011 18.2818 21.0746C18.0642 21.3613 16.3231 21.6481 15.6701 21.6481C15.8878 21.9348 16.3231 21.6481 16.7584 21.9348L18.0642 22.2215C17.6289 22.795 15.8878 22.795 15.2349 22.795L15.6701 23.0817H15.8878C16.3231 23.0817 16.3231 23.0817 16.7584 23.0817C18.2818 23.9419 19.5877 23.6552 21.3288 23.6552L24.1582 13.6195H26.5522L27.4228 10.1787H19.1524C18.7171 10.1787 18.4995 10.4654 18.0642 10.4654C17.6289 10.4654 17.1936 10.4654 16.7584 10.4654Z" fill="white"/>
<path fill-rule="evenodd" clip-rule="evenodd" d="M62.8985 11.8999C63.1162 11.8999 63.1162 11.8999 63.1162 11.8999C63.1162 11.8999 63.1162 11.3264 63.7691 11.6131C63.5515 12.4733 63.1162 12.7601 62.4633 12.1866C62.4633 11.3264 63.3338 9.606 64.2044 10.1795C64.2044 10.7529 64.2044 10.7529 63.9867 11.3264L63.5515 11.0397C63.5515 10.7529 63.7691 10.7529 63.7691 10.4662C63.5515 10.7529 63.1162 11.3264 62.8985 11.8999ZM62.028 11.8999C61.8103 11.8999 61.375 11.6131 61.1574 11.6131C61.375 10.7529 61.8103 9.606 62.2456 9.31926C62.6809 9.31926 62.6809 9.606 62.8985 9.89273C62.8985 10.4662 62.4633 11.3264 62.028 11.8999ZM60.9398 8.74579C61.375 8.45906 61.8103 9.03253 61.8103 9.31926C61.5927 9.89273 61.5927 9.03253 61.1574 9.89273C60.9398 10.4662 60.7221 10.7529 60.7221 11.3264L60.2868 11.0397C60.7221 9.89273 60.9398 9.606 60.9398 9.03253C60.9398 8.45906 60.9398 9.31926 60.9398 8.74579ZM58.7634 10.1795L59.8516 8.17233C60.0692 8.17233 60.2868 8.17233 60.7221 8.45906C60.5045 9.03253 60.2868 9.89273 60.0692 10.1795C59.6339 10.7529 59.4163 10.7529 58.7634 10.1795ZM60.2868 7.02539C59.4163 7.02539 58.981 7.88559 58.5457 8.45906C58.1104 9.03253 57.6751 10.4662 58.3281 11.0397C58.981 11.6131 61.375 13.0468 62.4633 13.0468C64.8573 13.3335 65.2926 10.1795 64.2044 9.31926C63.5515 8.74579 62.8985 8.74579 62.2456 8.17233C61.1574 7.31212 61.8103 7.02539 60.2868 7.02539Z" fill="white"/>
<path fill-rule="evenodd" clip-rule="evenodd" d="M61.8102 11.3265C61.8102 10.753 62.0278 10.1795 62.4631 9.8928C62.4631 10.4663 62.0278 11.0397 61.8102 11.3265ZM62.0278 11.8999C62.4631 11.3265 62.8984 10.4663 62.8984 9.8928C62.6807 9.60607 62.6807 9.31934 62.2454 9.31934C61.8102 9.60607 61.3749 10.753 61.1572 11.6132C61.3749 11.6132 61.8102 11.8999 62.0278 11.8999Z" fill="#4E5258"/>
<path fill-rule="evenodd" clip-rule="evenodd" d="M59.4161 10.179C59.4161 9.60555 59.8514 8.74534 60.069 8.74534C60.069 9.03208 60.069 9.03208 59.8514 9.60555C59.6337 9.89228 59.6337 9.89228 59.4161 10.179ZM58.7632 10.179C59.4161 10.7525 59.6337 10.7525 60.069 10.179C60.2867 9.89228 60.5043 9.03208 60.722 8.45861C60.2867 8.17188 60.069 8.17188 59.8514 8.17188L58.7632 10.179Z" fill="#4E5258"/>
<path fill-rule="evenodd" clip-rule="evenodd" d="M62.8982 11.8995C63.1158 11.326 63.5511 10.7526 63.7687 10.4658C63.7687 10.7526 63.5511 10.7526 63.5511 11.0393L63.9864 11.326C64.204 10.7526 64.204 10.7526 64.204 10.1791C63.3335 9.60564 62.4629 11.326 62.4629 12.1862C63.1158 12.7597 63.5511 12.473 63.7687 11.6128C63.1158 11.326 63.1158 11.8995 63.1158 11.8995C63.1158 11.8995 63.1158 11.8995 62.8982 11.8995Z" fill="#4E5258"/>
<path fill-rule="evenodd" clip-rule="evenodd" d="M61.8101 9.31861C61.8101 9.03187 61.3748 8.45841 60.9395 8.74514C60.9395 9.31861 60.9395 8.45841 60.9395 9.03187C60.9395 9.60534 60.7219 9.89208 60.2866 11.039L60.7219 11.3257C60.7219 10.7523 60.9395 10.4655 61.1572 9.89208C61.5925 9.03187 61.5925 9.89208 61.8101 9.31861Z" fill="#4E5258"/>
<path fill-rule="evenodd" clip-rule="evenodd" d="M59.8513 6.45177C60.0689 6.73851 61.1571 7.02524 61.3748 6.45177C61.1571 6.16504 60.5042 6.16504 60.0689 6.16504C59.6336 6.45177 59.8513 6.45177 59.8513 6.45177Z" fill="white"/>
<path fill-rule="evenodd" clip-rule="evenodd" d="M59.416 10.1788C59.6337 9.89205 59.6337 9.89205 59.8513 9.60532C60.0689 9.03185 60.0689 9.03185 60.0689 8.74512C59.8513 8.74512 59.416 9.60532 59.416 10.1788Z" fill="#405586"/>
<path fill-rule="evenodd" clip-rule="evenodd" d="M61.8101 11.3262C62.0277 11.0395 62.463 10.466 62.463 9.89258C62.0277 10.1793 61.8101 10.7528 61.8101 11.3262Z" fill="#405586"/>
</svg>
