<svg width="90" height="25" viewBox="0 0 90 25" fill="none" xmlns="http://www.w3.org/2000/svg">
<path d="M89.4456 21.6687C89.4456 20.2879 88.4623 19.2767 87.1079 19.2767C85.7556 19.2767 84.7713 20.2879 84.7713 21.6687C84.7713 23.0473 85.7556 24.0568 87.1079 24.0568C88.4623 24.0568 89.4456 23.0457 89.4456 21.6687ZM86.4936 21.7914V23.3538H85.9868V19.9086H87.2462C87.9842 19.9086 88.3228 20.2296 88.3228 20.8553C88.3228 21.2407 88.0613 21.546 87.7243 21.5903V21.6049C88.0168 21.6514 88.1243 21.9113 88.1845 22.3869C88.2306 22.695 88.2919 23.2294 88.4021 23.3549H87.8025C87.663 23.0311 87.6771 22.5729 87.5697 22.1891C87.4808 21.8973 87.3244 21.7908 86.9886 21.7908H86.4964V21.7925L86.4936 21.7914ZM87.1219 21.3461C87.6141 21.3461 87.7547 21.085 87.7547 20.8548C87.7547 20.5825 87.6141 20.3674 87.1219 20.3674H86.4936V21.3472H87.1219V21.3461ZM84.2139 21.6687C84.2139 19.9674 85.57 18.8174 87.1056 18.8174C88.6457 18.8174 90.0002 19.9674 90.0002 21.6687C90.0002 23.3667 88.6463 24.5178 87.1056 24.5178C85.57 24.5178 84.2139 23.3667 84.2139 21.6687Z" fill="white"/>
<path d="M60.0999 19.1661V23.5204H47.7476V0.55957H60.0999V4.90038H52.9034H52.4034V5.40038V8.81023V9.31023H52.9034H60.0999V13.4494H52.9034H52.4034V13.9494V18.6661V19.1661H52.9034H60.0999ZM67.3285 23.5204H61.7173L67.7686 16.7496L68.0664 16.4165L67.7687 16.0833L61.7171 9.31023H67.5496L70.7685 12.842L71.1452 13.2554L71.5139 12.8349L74.6051 9.31023H80.1815L74.163 16.0515L73.8649 16.3855L74.164 16.7185L80.2712 23.5204H74.4152L71.2304 19.9633L70.8563 19.5454L70.484 19.9649L67.3285 23.5204Z" stroke="white"/>
<path d="M41.6127 0.0595703V9.86562H41.5503C40.3033 8.43827 38.7446 7.94082 36.9373 7.94082C33.2339 7.94082 30.444 10.4499 29.4647 13.7645C28.3476 10.1115 25.4671 7.87248 21.1967 7.87248C17.7279 7.87248 14.9897 9.42251 13.5593 11.949V8.80967H6.3904V5.40094H14.2146V0.0606922H0V24.0204H6.3904V13.9494H12.76C12.5638 14.7238 12.4657 15.5197 12.4681 16.3184C12.4681 21.3141 16.3014 24.8248 21.1956 24.8248C25.3096 24.8248 28.0231 22.8995 29.4568 19.3944H23.9799C23.2397 20.4492 22.6772 20.7607 21.1962 20.7607C19.4795 20.7607 17.9979 19.2683 17.9979 17.5015H29.1497C29.6335 21.4704 32.7384 24.8926 36.9998 24.8926C38.838 24.8926 40.5209 23.9924 41.5497 22.4715H41.6116V24.0238H47.246V0.0606922H41.6127V0.0595703ZM18.1756 14.0211C18.5317 12.4985 19.7168 11.5036 21.1962 11.5036C22.8251 11.5036 23.9501 12.4677 24.2454 14.0211H18.1756ZM38.1934 20.3741C36.1172 20.3741 34.8269 18.4477 34.8269 16.4355C34.8269 14.2844 35.9496 12.2178 38.1934 12.2178C40.5215 12.2178 41.449 14.2855 41.449 16.4355C41.449 18.4734 40.4669 20.3741 38.1934 20.3741Z" fill="white"/>
</svg>
