<svg width="40" height="40" viewBox="0 0 40 40" fill="none" xmlns="http://www.w3.org/2000/svg">
<path d="M38.4698 20.1117C38.4692 16.5821 37.4574 13.1266 35.554 10.1542C33.6505 7.18181 30.9353 4.81706 27.7297 3.33988C24.5241 1.86271 20.9624 1.33497 17.4661 1.81915C13.9699 2.30332 10.6856 3.77914 8.0021 6.07187C5.31857 8.36461 3.34817 11.3783 2.32417 14.756C1.30017 18.1338 1.26545 21.7343 2.22412 25.1312C3.18279 28.5281 5.09471 31.5792 7.73353 33.9232C10.3723 36.2673 13.6276 37.8062 17.1138 38.3577V25.4507H12.4218V20.1117H17.1138V16.0417C17.1138 11.4127 19.8698 8.85668 24.0898 8.85668C25.475 8.87575 26.8571 8.99607 28.2248 9.21667V13.7597H25.8948C25.4983 13.7073 25.095 13.7448 24.7149 13.8692C24.3348 13.9936 23.9874 14.2018 23.6986 14.4785C23.4097 14.7552 23.1867 15.0932 23.046 15.4676C22.9054 15.842 22.8506 16.2433 22.8858 16.6417V20.1117H28.0078L27.1888 25.4507H22.8888V38.3577C27.2324 37.6684 31.1878 35.4523 34.0438 32.1078C36.8998 28.7632 38.4692 24.5097 38.4698 20.1117Z" fill="white"/>
</svg>
