<svg width="40" height="40" viewBox="0 0 40 40" fill="none" xmlns="http://www.w3.org/2000/svg">
<path d="M19.9981 37.9981C17.5913 38.0026 15.2084 37.5213 12.9921 36.583C10.8531 35.6798 8.90993 34.37 7.27017 32.7261C5.62633 31.0867 4.31637 29.1438 3.41312 27.0052C2.47481 24.7885 1.9935 22.4052 1.99808 19.9981C1.99352 17.5913 2.47484 15.2085 3.41312 12.9922C4.31646 10.8533 5.6264 8.90987 7.27017 7.27005C8.90984 5.62584 10.853 4.31569 12.9921 3.41214C15.2084 2.47386 17.5913 1.99254 19.9981 1.9971C22.4048 1.99252 24.7879 2.47383 27.0042 3.41214C29.1432 4.31569 31.0864 5.62584 32.7261 7.27005C34.3703 8.90976 35.6805 10.8532 36.5841 12.9922C37.5223 15.2086 38.0036 17.5913 37.9992 19.9981C38.0037 22.4052 37.5224 24.7885 36.5841 27.0052C35.6804 29.1438 34.3701 31.0867 32.7261 32.7261C31.0864 34.37 29.1432 35.6798 27.0042 36.583C24.7879 37.5214 22.4048 38.0027 19.9981 37.9981ZM19.9981 9.00516C18.0381 9.00516 16.2981 9.03506 15.4621 9.08206C13.7533 9.04372 12.0982 9.67997 10.8551 10.8531C9.67966 12.095 9.04148 13.7506 9.07913 15.4602C8.97913 17.2832 8.97913 22.709 9.07913 24.531C9.03776 26.2413 9.67647 27.8983 10.8551 29.1382C12.0987 30.3112 13.753 30.9488 15.4621 30.9141C16.3051 30.9621 18.0421 30.9912 19.9971 30.9912C21.9521 30.9912 23.6901 30.9611 24.5331 30.9141C26.2434 30.9557 27.9004 30.3171 29.1402 29.1382C30.3143 27.8954 30.9526 26.2404 30.9171 24.531C31.0171 22.709 31.0171 17.2861 30.9171 15.4641C30.9577 13.7542 30.3187 12.0979 29.1402 10.8582C27.8979 9.68327 26.2426 9.04506 24.5331 9.08206C23.6981 9.03606 21.9591 9.00516 19.9981 9.00516ZM21.9522 29.0242C21.5382 29.0242 21.1391 29.0241 20.7871 29.0161C20.5291 29.0161 20.2362 29.01 20.0002 29.01C19.7642 29.01 19.4831 29.0102 19.2311 29.0152C18.8561 29.0152 18.4881 29.0222 18.0951 29.0222C16.5558 29.0958 15.0141 28.9431 13.5191 28.5691C13.0463 28.3822 12.617 28.1002 12.2575 27.7408C11.898 27.3813 11.616 26.9518 11.4291 26.479C10.9361 25.236 10.9641 22.5541 10.9811 20.7791C10.9811 20.5231 10.9871 20.2331 10.9871 19.9971C10.9871 19.7821 10.9871 19.5342 10.9821 19.2332C10.9651 17.4512 10.9391 14.7581 11.4291 13.5161C11.616 13.0433 11.8979 12.6139 12.2574 12.2544C12.6168 11.8949 13.0463 11.6129 13.5191 11.4261C15.0013 11.0511 16.531 10.898 18.0581 10.9712C18.4461 10.9712 18.8221 10.9711 19.1581 10.9781H19.2211C19.4771 10.9781 19.7681 10.9842 20.0031 10.9842C20.2191 10.9842 20.4671 10.984 20.7681 10.979H20.7862C21.1222 10.979 21.5031 10.9722 21.8981 10.9722C23.4414 10.8986 24.9872 11.0514 26.4861 11.4261C26.959 11.6129 27.3885 11.8949 27.748 12.2544C28.1075 12.6139 28.3893 13.0433 28.5761 13.5161C29.0681 14.7571 29.0411 17.4372 29.0231 19.2112C29.0231 19.4692 29.0171 19.7601 29.0171 19.9971C29.0171 20.2341 29.0171 20.5262 29.0231 20.7842C29.0411 22.5592 29.0691 25.2422 28.5761 26.4842C28.389 26.9569 28.1071 27.3862 27.7476 27.7456C27.3881 28.1051 26.9588 28.3869 26.4861 28.574C25.0061 28.9477 23.4788 29.1002 21.9541 29.0262L21.9522 29.0242ZM20.0002 14.3611C19.2592 14.3584 18.5251 14.5029 17.8404 14.7859C17.1556 15.069 16.5339 15.485 16.0111 16.01C15.4864 16.5328 15.0705 17.1544 14.7876 17.8389C14.5047 18.5234 14.3604 19.2574 14.3631 19.9981C14.3602 20.7389 14.5045 21.473 14.7874 22.1577C15.0703 22.8425 15.4862 23.4643 16.0111 23.9871C16.5339 24.5122 17.1556 24.9284 17.8404 25.2115C18.5251 25.4945 19.2592 25.6387 20.0002 25.636C20.7411 25.6387 21.4752 25.4945 22.1599 25.2115C22.8447 24.9284 23.4664 24.5122 23.9892 23.9871C24.5143 23.4643 24.9304 22.8427 25.2134 22.158C25.4965 21.4733 25.6408 20.739 25.6381 19.9981C25.6407 19.2573 25.4962 18.5235 25.2132 17.8389C24.9301 17.1543 24.5141 16.5327 23.9892 16.01C23.466 15.4851 22.8438 15.0694 22.1587 14.7867C21.4736 14.5039 20.7392 14.3598 19.9981 14.3631L20.0002 14.3611ZM25.8681 12.8162C25.5194 12.8165 25.1852 12.9551 24.9386 13.2017C24.6921 13.4482 24.5534 13.7825 24.5531 14.1311C24.5534 14.4798 24.6921 14.814 24.9386 15.0606C25.1852 15.3071 25.5194 15.4458 25.8681 15.4461C26.2168 15.4458 26.5511 15.3071 26.7976 15.0606C27.0442 14.814 27.1829 14.4798 27.1831 14.1311C27.1823 13.7831 27.0437 13.4497 26.7976 13.2036C26.5516 12.9576 26.2181 12.8189 25.8701 12.8181L25.8681 12.8162ZM20.0002 23.6641C19.0283 23.663 18.0966 23.2765 17.4095 22.5891C16.7223 21.9018 16.3359 20.9699 16.3351 19.9981C16.3362 19.0264 16.7226 18.0948 17.4097 17.4077C18.0968 16.7207 19.0285 16.3341 20.0002 16.333C20.9718 16.3341 21.9034 16.7207 22.5905 17.4077C23.2776 18.0948 23.664 19.0264 23.6651 19.9981C23.6645 20.9705 23.2781 21.903 22.5905 22.5906C21.9029 23.2782 20.9705 23.6645 19.9981 23.6651L20.0002 23.6641Z" fill="white"/>
</svg>
