<svg width="40" height="40" viewBox="0 0 40 40" fill="none" xmlns="http://www.w3.org/2000/svg">
<path d="M36.9832 20C36.9829 22.6603 36.3577 25.2834 35.1579 27.6578C33.9582 30.0323 32.2175 32.0917 30.076 33.6702C27.9346 35.2487 25.4523 36.302 22.8292 36.7455C20.2061 37.1889 17.5155 37.0099 14.9742 36.223C15.8664 34.8366 16.5753 33.3405 17.0832 31.772C17.2882 30.978 18.1382 27.732 18.1382 27.732C18.5717 28.3566 19.155 28.8625 19.8345 29.2035C20.5141 29.5445 21.2683 29.7097 22.0282 29.684C27.1502 29.684 30.8412 24.973 30.8412 19.118C30.8412 13.51 26.2602 9.31201 20.3702 9.31201C13.0432 9.31201 9.14619 14.229 9.14619 19.591C9.14619 22.084 10.4752 25.186 12.5912 26.172C12.9132 26.323 13.0842 26.254 13.1592 25.946C13.2142 25.713 13.5012 24.556 13.6322 24.022C13.6564 23.9379 13.6584 23.8489 13.6381 23.7638C13.6177 23.6786 13.5758 23.6002 13.5162 23.536C12.7056 22.4057 12.2677 21.0509 12.2632 19.66C12.2597 18.6657 12.458 17.681 12.846 16.7656C13.2341 15.8502 13.8039 15.023 14.521 14.3342C15.2381 13.6454 16.0874 13.1092 17.0177 12.7582C17.948 12.4072 18.9398 12.2486 19.9332 12.292C20.8636 12.2367 21.7953 12.3761 22.6687 12.7013C23.5422 13.0265 24.3382 13.5304 25.0058 14.1808C25.6735 14.8311 26.1981 15.6136 26.5462 16.4782C26.8942 17.3428 27.058 18.2705 27.0272 19.202C27.0272 23.797 24.7062 26.981 21.6862 26.981C21.3008 27.0008 20.9161 26.9297 20.5632 26.7736C20.2103 26.6174 19.899 26.3805 19.6545 26.082C19.41 25.7834 19.239 25.4316 19.1554 25.0548C19.0718 24.6781 19.0779 24.287 19.1732 23.913C19.6522 21.893 20.5732 19.713 20.5732 18.257C20.6099 17.9547 20.5815 17.648 20.4898 17.3575C20.3981 17.0671 20.2452 16.7997 20.0415 16.5732C19.8378 16.3468 19.588 16.1666 19.3089 16.0448C19.0297 15.923 18.7277 15.8624 18.4232 15.867C16.7182 15.867 15.3482 17.627 15.3482 19.989C15.3369 20.8554 15.5097 21.7144 15.8552 22.509C15.8552 22.509 14.1772 29.617 13.8692 30.946C13.6062 32.5592 13.5853 34.2026 13.8072 35.822C10.9301 34.6958 8.41462 32.8062 6.5317 30.3565C4.64878 27.9069 3.46971 24.99 3.12144 21.9201C2.77317 18.8501 3.2689 15.7432 4.55525 12.934C5.84159 10.1249 7.86983 7.71978 10.4216 5.97773C12.9733 4.23568 15.9519 3.22266 19.0366 3.04775C22.1214 2.87284 25.1954 3.54266 27.9277 4.98509C30.66 6.42752 32.9471 8.58792 34.5428 11.2337C36.1384 13.8794 36.9822 16.9103 36.9832 20Z" fill="white"/>
</svg>
