<svg width="40" height="40" viewBox="0 0 40 40" fill="none" xmlns="http://www.w3.org/2000/svg">
<path d="M19.9981 37.9981C17.5913 38.0027 15.2084 37.5214 12.9921 36.583C10.8532 35.6797 8.90999 34.3699 7.27017 32.7261C5.62623 31.0866 4.31598 29.1438 3.41214 27.0052C2.47386 24.7885 1.99255 22.4052 1.9971 19.9981C1.99265 17.5913 2.47396 15.2086 3.41214 12.9922C4.31587 10.8533 5.62612 8.90985 7.27017 7.27005C8.90987 5.62588 10.8531 4.31573 12.9921 3.41214C15.2084 2.47383 17.5913 1.99252 19.9981 1.9971C22.4048 1.99254 24.7879 2.47386 27.0042 3.41214C29.1432 4.31569 31.0864 5.62584 32.7261 7.27005C34.3702 8.90981 35.6805 10.8532 36.5841 12.9922C37.522 15.2086 38.0029 17.5914 37.9981 19.9981C38.0029 22.4051 37.522 24.7884 36.5841 27.0052C35.6805 29.1439 34.3703 31.0868 32.7261 32.7261C31.0864 34.37 29.1432 35.6798 27.0042 36.583C24.7879 37.5213 22.4048 38.0026 19.9981 37.9981ZM7.59818 27.7881C9.9254 29.2812 12.6331 30.0731 15.3981 30.0691C17.536 30.0885 19.6523 29.6398 21.5982 28.7542C23.3299 27.9496 24.874 26.7913 26.1311 25.354C28.503 22.6566 29.8252 19.1958 29.8561 15.604C29.8561 15.388 29.8561 15.1641 29.8401 14.9431C30.8326 14.2179 31.6945 13.3294 32.3891 12.3152C31.4586 12.7223 30.4724 12.9871 29.4632 13.1011C30.5246 12.4717 31.3192 11.4757 31.6972 10.3011C30.7005 10.893 29.6091 11.3085 28.4711 11.5291C27.994 11.0234 27.4185 10.6206 26.7799 10.3455C26.1414 10.0703 25.4534 9.92875 24.7581 9.92923C23.4107 9.93082 22.1191 10.4668 21.1664 11.4195C20.2137 12.3722 19.6778 13.6637 19.6762 15.011C19.678 15.4026 19.7202 15.7931 19.8022 16.1761C17.7806 16.0712 15.8034 15.5436 13.9983 14.6275C12.1932 13.7113 10.6002 12.4271 9.32218 10.8572C8.86509 11.6345 8.62572 12.5204 8.62918 13.4222C8.62832 14.2599 8.83475 15.0849 9.23013 15.8235C9.62551 16.5621 10.1975 17.1912 10.8952 17.6551C10.0885 17.6239 9.30042 17.4029 8.59512 17.01V17.073C8.59544 18.2565 9.00733 19.4031 9.76016 20.3162C10.5035 21.2124 11.5304 21.8279 12.6712 22.0611C12.2346 22.175 11.7853 22.2332 11.3341 22.2342C11.0126 22.2322 10.6918 22.2061 10.3742 22.156C10.7006 23.1652 11.3339 24.0472 12.1858 24.679C13.0377 25.3108 14.0657 25.6609 15.1261 25.6802C13.3283 27.0958 11.1043 27.8612 8.81607 27.8521C8.4092 27.8544 8.00264 27.8324 7.59818 27.7881Z" fill="white"/>
</svg>
